<svg width="131" height="131" viewBox="0 0 131 131" fill="none" xmlns="http://www.w3.org/2000/svg">
<path d="M89.0625 49.125C89.0625 55.3742 86.58 61.3674 82.1612 65.7862C77.7424 70.205 71.7492 72.6875 65.5 72.6875C59.2508 72.6875 53.2576 70.205 48.8388 65.7862C44.42 61.3674 41.9375 55.3742 41.9375 49.125C41.9375 42.8758 44.42 36.8826 48.8388 32.4638C53.2576 28.045 59.2508 25.5625 65.5 25.5625C71.7492 25.5625 77.7424 28.045 82.1612 32.4638C86.58 36.8826 89.0625 42.8758 89.0625 49.125Z" fill="#2A2A2A" stroke="#EBEBEB" stroke-width="2"/>
<path d="M19.9496 101.904L20.8336 103.01L21.5804 101.807C27.1839 92.7779 39.6319 82.875 65.5 82.875C91.3681 82.875 103.808 92.7697 109.42 101.807L110.167 103.01L111.05 101.904C117.906 93.3251 122.2 82.9852 123.438 72.074C124.676 61.1627 122.808 50.1236 118.048 40.2273C113.289 30.331 105.832 21.9797 96.5356 16.1345C87.2392 10.2894 76.4813 7.18809 65.5001 7.1875C54.5187 7.18809 43.7608 10.2894 34.4644 16.1345C25.168 21.9797 17.711 30.331 12.9518 40.2273C8.19247 50.1236 6.32431 61.1627 7.5623 72.074C8.80029 82.9852 13.0941 93.3251 19.9496 101.904ZM1 65.5C1 48.3935 7.79552 31.9877 19.8916 19.8916C31.9877 7.79552 48.3935 1 65.5 1C82.6065 1 99.0123 7.79552 111.108 19.8916C123.204 31.9877 130 48.3935 130 65.5C130 82.6065 123.204 99.0123 111.108 111.108C99.0123 123.204 82.6065 130 65.5 130C48.3935 130 31.9877 123.204 19.8916 111.108C7.79552 99.0123 1 82.6065 1 65.5Z" fill="#2A2A2A" stroke="#EBEBEB" stroke-width="2"/>
</svg>
