<svg width="30" height="45" viewBox="0 0 30 45" fill="none" xmlns="http://www.w3.org/2000/svg">
<mask id="path-1-inside-1_1_2164" fill="white">
<path fill-rule="evenodd" clip-rule="evenodd" d="M13.619 0.405851C12.131 1.33543 11.0713 3.46609 10.8411 5.99026L10.7168 7.35489L9.63864 7.86695C7.29933 8.97803 5.07025 11.097 3.71278 13.5C2.89965 14.9395 2.34792 17.0022 2.12114 19.4516C2.00438 20.7126 1.44146 25.9303 0.870093 31.0465C-0.0536781 39.3176 -0.135181 40.4027 0.135933 40.8352C0.433652 41.3104 0.525289 41.3213 4.11755 41.3001C8.53349 41.2741 8.91018 41.3747 12.3601 43.5032C13.6944 44.3266 14.9085 45 15.058 45C15.2077 45 15.9923 44.5591 16.8016 44.0202C17.6112 43.4813 18.9805 42.6781 19.8447 42.2355L21.416 41.4305L25.4963 41.3634C29.4283 41.299 29.5872 41.2793 29.8731 40.8226C30.1335 40.407 30.0425 39.2079 29.131 31.0465C28.5596 25.9303 27.9962 20.7221 27.8791 19.4728C27.7619 18.2234 27.5313 16.7476 27.3668 16.1932C26.302 12.6048 23.8552 9.63503 20.6192 8.0028L19.2818 7.32806L19.1587 5.97685C18.7685 1.69692 16.0035 -1.08382 13.619 0.405851ZM15.8168 2.93564C16.6414 4.00952 16.9545 5.48902 16.8599 7.86435C16.7676 10.1828 16.3956 11.3246 15.4452 12.2051C15.0079 12.6103 14.9931 12.6103 14.5558 12.2051C14.3111 11.9783 13.9125 11.4036 13.6699 10.9276C13.0514 9.71486 12.903 6.13109 13.4066 4.57739C13.8337 3.26014 14.471 2.38248 15.0005 2.38248C15.2159 2.38248 15.5833 2.63126 15.8168 2.93564ZM12.2265 13.0425C13.1809 14.625 15.2104 15.2106 16.566 14.2951C17.3861 13.741 18.2957 12.3176 18.7286 10.911L19.0812 9.76505L19.8531 10.1685C21.101 10.8207 22.6863 12.207 23.5286 13.3828C25.1297 15.6177 25.2144 16.0264 26.4971 27.715C27.1422 33.5928 27.6698 38.5131 27.6696 38.6491C27.6694 38.8198 26.6724 38.9245 24.4494 38.987C20.772 39.0904 20.0271 39.3172 16.7775 41.3208L15.0005 42.4168L13.2235 41.3208C9.93889 39.2955 9.22627 39.0785 5.55166 38.9855C3.29534 38.9282 2.33166 38.8287 2.33145 38.6528C2.33124 38.5148 2.85805 33.5993 3.50226 27.7293C4.36522 19.8669 4.78562 16.7496 5.09938 15.8905C5.9047 13.6854 7.72121 11.59 9.95452 10.2903L10.8696 9.75769L11.3118 11.0083C11.5548 11.696 11.9663 12.6116 12.2265 13.0425ZM7.50478 17.2895C6.18511 17.8684 5.86163 19.685 6.90216 20.673C7.67011 21.4022 8.91377 21.402 9.62576 20.6723C10.1175 20.1687 10.2442 19.6971 10.1522 18.7156C10.0567 17.6982 8.49316 16.8558 7.50478 17.2895ZM21.0182 17.2895C19.7212 17.8585 19.3802 19.653 20.3753 20.6723C21.0011 21.3137 22.2543 21.3847 22.9711 20.8192C23.9137 20.0759 23.9203 18.3775 22.9836 17.5811C22.5533 17.2151 21.5328 17.0637 21.0182 17.2895ZM12.0915 25.9809L14.2224 29.6767L12.5761 33.1075C11.112 36.1585 10.9427 36.6368 11.0466 37.4292C11.1883 38.5111 11.8586 39.561 12.8546 40.2602C13.919 41.0076 16.082 41.0076 17.1464 40.2602C18.1424 39.561 18.8128 38.5111 18.9545 37.4292C19.0584 36.6368 18.889 36.1585 17.4249 33.1075L15.7786 29.6767L17.9095 25.9809L20.0402 22.2851H15.0005H9.96085L12.0915 25.9809ZM16.0155 24.6107C15.5292 25.6503 15.111 26.3952 15.0143 26.3937C14.8903 26.3919 13.9448 24.7777 13.9448 24.5678C13.9448 24.5021 14.4277 24.4484 15.018 24.4484C15.6084 24.4484 16.0573 24.5215 16.0155 24.6107ZM15.9045 35.1605C16.8172 37.0504 16.8498 37.3343 16.2307 38.0094C15.3622 38.9563 13.3113 38.3722 13.3113 37.1778C13.3113 36.7556 14.8048 33.5344 15.0005 33.5344C15.0658 33.5344 15.4724 34.266 15.9045 35.1605Z"/>
</mask>
<path fill-rule="evenodd" clip-rule="evenodd" d="M13.619 0.405851C12.131 1.33543 11.0713 3.46609 10.8411 5.99026L10.7168 7.35489L9.63864 7.86695C7.29933 8.97803 5.07025 11.097 3.71278 13.5C2.89965 14.9395 2.34792 17.0022 2.12114 19.4516C2.00438 20.7126 1.44146 25.9303 0.870093 31.0465C-0.0536781 39.3176 -0.135181 40.4027 0.135933 40.8352C0.433652 41.3104 0.525289 41.3213 4.11755 41.3001C8.53349 41.2741 8.91018 41.3747 12.3601 43.5032C13.6944 44.3266 14.9085 45 15.058 45C15.2077 45 15.9923 44.5591 16.8016 44.0202C17.6112 43.4813 18.9805 42.6781 19.8447 42.2355L21.416 41.4305L25.4963 41.3634C29.4283 41.299 29.5872 41.2793 29.8731 40.8226C30.1335 40.407 30.0425 39.2079 29.131 31.0465C28.5596 25.9303 27.9962 20.7221 27.8791 19.4728C27.7619 18.2234 27.5313 16.7476 27.3668 16.1932C26.302 12.6048 23.8552 9.63503 20.6192 8.0028L19.2818 7.32806L19.1587 5.97685C18.7685 1.69692 16.0035 -1.08382 13.619 0.405851ZM15.8168 2.93564C16.6414 4.00952 16.9545 5.48902 16.8599 7.86435C16.7676 10.1828 16.3956 11.3246 15.4452 12.2051C15.0079 12.6103 14.9931 12.6103 14.5558 12.2051C14.3111 11.9783 13.9125 11.4036 13.6699 10.9276C13.0514 9.71486 12.903 6.13109 13.4066 4.57739C13.8337 3.26014 14.471 2.38248 15.0005 2.38248C15.2159 2.38248 15.5833 2.63126 15.8168 2.93564ZM12.2265 13.0425C13.1809 14.625 15.2104 15.2106 16.566 14.2951C17.3861 13.741 18.2957 12.3176 18.7286 10.911L19.0812 9.76505L19.8531 10.1685C21.101 10.8207 22.6863 12.207 23.5286 13.3828C25.1297 15.6177 25.2144 16.0264 26.4971 27.715C27.1422 33.5928 27.6698 38.5131 27.6696 38.6491C27.6694 38.8198 26.6724 38.9245 24.4494 38.987C20.772 39.0904 20.0271 39.3172 16.7775 41.3208L15.0005 42.4168L13.2235 41.3208C9.93889 39.2955 9.22627 39.0785 5.55166 38.9855C3.29534 38.9282 2.33166 38.8287 2.33145 38.6528C2.33124 38.5148 2.85805 33.5993 3.50226 27.7293C4.36522 19.8669 4.78562 16.7496 5.09938 15.8905C5.9047 13.6854 7.72121 11.59 9.95452 10.2903L10.8696 9.75769L11.3118 11.0083C11.5548 11.696 11.9663 12.6116 12.2265 13.0425ZM7.50478 17.2895C6.18511 17.8684 5.86163 19.685 6.90216 20.673C7.67011 21.4022 8.91377 21.402 9.62576 20.6723C10.1175 20.1687 10.2442 19.6971 10.1522 18.7156C10.0567 17.6982 8.49316 16.8558 7.50478 17.2895ZM21.0182 17.2895C19.7212 17.8585 19.3802 19.653 20.3753 20.6723C21.0011 21.3137 22.2543 21.3847 22.9711 20.8192C23.9137 20.0759 23.9203 18.3775 22.9836 17.5811C22.5533 17.2151 21.5328 17.0637 21.0182 17.2895ZM12.0915 25.9809L14.2224 29.6767L12.5761 33.1075C11.112 36.1585 10.9427 36.6368 11.0466 37.4292C11.1883 38.5111 11.8586 39.561 12.8546 40.2602C13.919 41.0076 16.082 41.0076 17.1464 40.2602C18.1424 39.561 18.8128 38.5111 18.9545 37.4292C19.0584 36.6368 18.889 36.1585 17.4249 33.1075L15.7786 29.6767L17.9095 25.9809L20.0402 22.2851H15.0005H9.96085L12.0915 25.9809ZM16.0155 24.6107C15.5292 25.6503 15.111 26.3952 15.0143 26.3937C14.8903 26.3919 13.9448 24.7777 13.9448 24.5678C13.9448 24.5021 14.4277 24.4484 15.018 24.4484C15.6084 24.4484 16.0573 24.5215 16.0155 24.6107ZM15.9045 35.1605C16.8172 37.0504 16.8498 37.3343 16.2307 38.0094C15.3622 38.9563 13.3113 38.3722 13.3113 37.1778C13.3113 36.7556 14.8048 33.5344 15.0005 33.5344C15.0658 33.5344 15.4724 34.266 15.9045 35.1605Z" fill="#E70000" stroke="#EBEBEB" mask="url(#path-1-inside-1_1_2164)"/>
</svg>
