<svg width="30" height="45" viewBox="0 0 30 45" fill="none" xmlns="http://www.w3.org/2000/svg">
<path d="M27.1271 16.2643C27.2842 16.7937 27.5132 18.2487 27.6302 19.4961C27.7476 20.7481 28.3112 25.9589 28.8825 31.0743C29.3385 35.1567 29.5885 37.4917 29.6922 38.8582C29.7442 39.5427 29.7585 39.9737 29.7455 40.2559C29.7323 40.5403 29.6919 40.641 29.6613 40.6899L29.6612 40.69C29.5951 40.7956 29.5583 40.8387 29.4969 40.874C29.4248 40.9155 29.296 40.9581 29.0213 40.992C28.4713 41.06 27.4666 41.0811 25.4922 41.1135L21.4119 41.1805L21.3538 41.1815L21.3021 41.208L19.7307 42.013C18.858 42.4599 17.4805 43.268 16.6631 43.8121L16.6631 43.8121C16.2626 44.0787 15.8696 44.3203 15.56 44.4942C15.4048 44.5815 15.2736 44.65 15.1745 44.6959C15.1261 44.7184 15.0888 44.7338 15.0621 44.7433C15.0575 44.7416 15.0523 44.7396 15.0466 44.7373C15.0047 44.7206 14.9461 44.6941 14.8707 44.6572C14.7206 44.584 14.5174 44.4765 14.2746 44.3417C13.7897 44.0727 13.156 43.7006 12.4914 43.2904L12.3601 43.5032L12.4914 43.2904C10.7727 42.23 9.78472 41.6513 8.66564 41.3522C7.54948 41.0539 6.31528 41.0371 4.11608 41.0501C2.30978 41.0607 1.40993 41.0627 0.920288 41.0055C0.677748 40.9772 0.57107 40.9373 0.512282 40.9001C0.457972 40.8657 0.421799 40.8206 0.347799 40.7025L0.347749 40.7024C0.312316 40.6459 0.271009 40.5457 0.255987 40.2726C0.240888 39.9982 0.253357 39.5772 0.304231 38.899C0.405767 37.5454 0.656445 35.2118 1.11855 31.0743L0.870093 31.0465L1.11855 31.0743C1.68981 25.9589 2.25305 20.7385 2.37008 19.4746C2.59505 17.0448 3.14101 15.0205 3.93045 13.623C5.26434 11.2617 7.45624 9.18027 9.7459 8.09277L10.824 7.58071L10.9528 7.51955L10.9657 7.37758L11.0901 6.01296C11.3165 3.53028 12.3556 1.48991 13.7514 0.617876C14.2958 0.277824 14.8513 0.185916 15.3874 0.291307C15.928 0.397593 16.4666 0.708463 16.9594 1.20403C17.9469 2.19716 18.7185 3.90256 18.9097 5.99953L19.0328 7.35074L19.0454 7.48881L19.1691 7.55126L20.5066 8.226L20.5066 8.22602C23.6789 9.82609 26.0812 12.7396 27.1271 16.2643ZM27.1271 16.2643L27.3668 16.1932M27.1271 16.2643C27.1271 16.2643 27.1271 16.2643 27.1271 16.2643L27.3668 16.1932M27.3668 16.1932C26.302 12.6048 23.8552 9.63503 20.6192 8.0028M27.3668 16.1932C27.5313 16.7476 27.7619 18.2234 27.8791 19.4728C27.9963 20.7221 28.5596 25.9303 29.131 31.0465C30.0425 39.2079 30.1335 40.407 29.8731 40.8226C29.5872 41.2793 29.4283 41.299 25.4963 41.3634L21.416 41.4305L19.8447 42.2355C18.9804 42.6781 17.6112 43.4813 16.8016 44.0202L20.6192 8.0028M20.6192 8.0028L19.2818 7.32806L20.6192 8.0028ZM13.1688 4.50031L13.1688 4.50028C13.3877 3.82507 13.6641 3.25052 13.9629 2.83907C14.1122 2.63344 14.2724 2.46116 14.4407 2.33829C14.6083 2.21591 14.7982 2.13248 15.0005 2.13248C15.1854 2.13248 15.3832 2.23031 15.5421 2.33795C15.7112 2.45252 15.8813 2.60903 16.0151 2.78339C16.8937 3.92762 17.205 5.48031 17.1097 7.8743C17.0167 10.211 16.6405 11.4385 15.6151 12.3885C15.5094 12.4864 15.4146 12.5739 15.3302 12.6352C15.2455 12.6968 15.136 12.759 15.0005 12.759C14.865 12.759 14.7556 12.6968 14.6708 12.6352C14.5865 12.5739 14.4916 12.4864 14.3859 12.3885C14.3859 12.3885 14.3859 12.3884 14.3859 12.3884L14.5558 12.2051C14.3111 11.9783 13.9125 11.4036 13.6699 10.9276L13.1688 4.50031ZM13.1688 4.50031C12.903 5.32009 12.8158 6.64027 12.8677 7.89071C12.8938 8.52032 12.9555 9.14174 13.0508 9.6854C13.1452 10.2243 13.2756 10.7047 13.4472 11.0412L13.1688 4.50031ZM12.4405 12.9133L12.4405 12.9134C13.3375 14.4006 15.2139 14.9065 16.4261 14.0879C16.7963 13.8378 17.2068 13.375 17.5818 12.7881C17.9544 12.205 18.2802 11.518 18.4896 10.8374L18.8422 9.69152L18.9306 9.40427L19.197 9.54348L19.9689 9.94694L19.8531 10.1685L19.9689 9.94695C21.2524 10.6178 22.8674 12.0305 23.7318 13.2372C24.1324 13.7964 24.4498 14.257 24.7135 14.8144C24.9778 15.3733 25.1837 16.0196 25.377 16.953C25.7618 18.8105 26.105 21.8504 26.7456 27.6878C27.0682 30.6268 27.3614 33.3265 27.5739 35.3086C27.6802 36.2995 27.7663 37.1113 27.8259 37.684C27.8556 37.9702 27.8788 38.1971 27.8945 38.3568C27.9091 38.505 27.9196 38.616 27.9196 38.6494L12.4405 12.9133ZM12.4405 12.9133C12.1921 12.5018 11.7872 11.6032 11.5475 10.925L11.5475 10.925L11.1053 9.67436L11.0047 9.3898L10.7439 9.54162L9.82877 10.0742C7.55042 11.4002 5.69195 13.5392 4.86456 15.8047C4.69635 16.2653 4.50997 17.2899 4.25902 19.1502C4.00638 21.0231 3.68525 23.7707 3.25375 27.702C2.93163 30.6372 2.63885 33.3338 2.42662 35.3139C2.32051 36.3039 2.23451 37.1151 2.17504 37.6874C2.14532 37.9735 2.12218 38.2003 2.10647 38.3601C2.09188 38.5085 2.0814 38.6196 2.08145 38.6532C2.08166 38.8039 2.18678 38.8902 2.24273 38.9259C2.30452 38.9654 2.37892 38.9919 2.45038 39.0118C2.59708 39.0526 2.80525 39.085 3.06982 39.1123C3.60321 39.1674 4.41657 39.2068 5.54531 39.2354C7.38388 39.282 8.44926 39.3597 9.46103 39.6677C10.4741 39.9761 11.448 40.5197 13.0923 41.5336L14.8693 42.6296L15.0005 42.7105M12.4405 12.9133L15.0005 42.7105M15.0005 42.7105L15.1318 42.6296M15.0005 42.7105L15.1318 42.6296M15.1318 42.6296L16.9088 41.5336C18.535 40.5309 19.5085 39.99 20.5258 39.6805C21.5421 39.3713 22.6169 39.2887 24.4564 39.2369C25.5687 39.2057 26.3818 39.1637 26.9191 39.1073M15.1318 42.6296L26.9191 39.1073M26.9191 39.1073C27.1858 39.0793 27.3962 39.0466 27.5444 39.0064M26.9191 39.1073L27.5444 39.0064M27.5444 39.0064C27.6166 38.9868 27.691 38.9611 27.7527 38.9234M27.5444 39.0064L27.7527 38.9234M27.7527 38.9234C27.8047 38.8916 27.9194 38.8063 27.9196 38.6495L27.7527 38.9234ZM7.60521 17.5185L7.60524 17.5185C8.00485 17.3431 8.55898 17.4168 9.04475 17.6785C9.53334 17.9417 9.86649 18.3472 9.90324 18.7389C9.94829 19.2192 9.9366 19.5475 9.86647 19.8082C9.79848 20.061 9.67051 20.2687 9.44689 20.4977L9.44683 20.4977C8.83644 21.1233 7.74956 21.1329 7.07432 20.4917L7.0743 20.4917C6.16477 19.6281 6.44744 18.0263 7.60521 17.5185ZM21.1187 17.5185L21.1187 17.5184C21.3145 17.4325 21.6441 17.4085 21.9958 17.4607C22.3473 17.5128 22.6572 17.6317 22.8216 17.7716L22.8217 17.7716C23.2229 18.1128 23.4342 18.66 23.4321 19.2191C23.4299 19.7786 23.2145 20.3089 22.8163 20.6229L22.8163 20.6229C22.5156 20.8601 22.0871 20.9733 21.6532 20.9488C21.2189 20.9242 20.8138 20.7637 20.5542 20.4977L20.5542 20.4977C19.6793 19.6015 19.9838 18.0163 21.1187 17.5185ZM19.6075 22.5351L17.6929 25.856L15.562 29.5519L15.4962 29.666L15.5532 29.7849L17.1995 33.2157C17.9336 34.7453 18.3351 35.6141 18.542 36.1987C18.7428 36.7659 18.7529 37.0438 18.7066 37.3967L18.7066 37.3968C18.5751 38.4008 17.9487 39.3915 17.0028 40.0555L17.0028 40.0556C16.5277 40.3891 15.7782 40.5707 15.0005 40.5707C14.2229 40.5707 13.4733 40.3891 12.9983 40.0556L12.9983 40.0555C12.0523 39.3915 11.4259 38.4008 11.2945 37.3968L11.2945 37.3967C11.2482 37.0438 11.2583 36.7659 11.459 36.1987C11.6659 35.6141 12.0675 34.7453 12.8015 33.2157L14.4478 29.7849L14.5049 29.666L14.439 29.5519L12.3081 25.856L10.3936 22.5351H15.0005H19.6075ZM16.4149 38.1784L16.4149 38.1784C16.5733 38.0057 16.7095 37.8379 16.7962 37.65C16.8869 37.4536 16.9175 37.2491 16.8904 37.0121C16.8642 36.783 16.7841 36.5248 16.6595 36.2148C16.5343 35.9033 16.3578 35.5245 16.1296 35.0518C15.9121 34.6015 15.7002 34.1905 15.5335 33.8905C15.4505 33.7412 15.3766 33.6157 15.3177 33.5257C15.2888 33.4816 15.2597 33.44 15.2321 33.4071C15.2189 33.3913 15.2001 33.3703 15.1771 33.351C15.1655 33.3414 15.1474 33.3275 15.1236 33.315C15.1018 33.3036 15.0584 33.2844 15.0005 33.2844C14.9157 33.2844 14.8555 33.3243 14.8333 33.3401C14.8048 33.3604 14.7817 33.3835 14.7649 33.4019C14.7306 33.4393 14.6964 33.4861 14.6641 33.5345C14.598 33.633 14.5193 33.7684 14.4343 33.925C14.2634 34.2399 14.0559 34.6609 13.8557 35.0926C13.6554 35.5246 13.4606 35.9714 13.3153 36.3384C13.2428 36.5216 13.1814 36.6878 13.1378 36.8237C13.0983 36.9468 13.0613 37.0798 13.0613 37.1778C13.0613 37.9375 13.7065 38.4461 14.3769 38.637C15.0537 38.8298 15.8952 38.7451 16.4149 38.1784ZM14.8759 26.6057C14.8965 26.6176 14.9448 26.6426 15.0103 26.6436L16.0155 24.6107L16.2419 24.7168C16.2419 24.7167 16.2419 24.7167 16.242 24.7166C16.2655 24.6663 16.2755 24.6059 16.2624 24.543C16.25 24.4835 16.2206 24.4397 16.1951 24.4113C16.1489 24.3597 16.0919 24.332 16.0585 24.3178C15.9845 24.2862 15.8898 24.2649 15.794 24.2494C15.5956 24.2171 15.3214 24.1984 15.018 24.1984C14.7166 24.1984 14.4386 24.212 14.2324 24.235C14.1309 24.2463 14.0381 24.2607 13.9661 24.2796C13.9321 24.2885 13.8883 24.302 13.8478 24.3239C13.8278 24.3347 13.7959 24.3542 13.7663 24.3865C13.7355 24.42 13.6948 24.4817 13.6948 24.5678C13.6948 24.6185 13.7073 24.6656 13.7158 24.6943C13.7259 24.7281 13.7393 24.7643 13.754 24.8006C13.7836 24.8734 13.8243 24.9601 13.8709 25.0533C13.9647 25.2405 14.0895 25.467 14.2173 25.6851C14.345 25.9031 14.478 26.117 14.5886 26.2784C14.6433 26.3584 14.6959 26.4303 14.7416 26.4845C14.7639 26.5109 14.7898 26.5395 14.8176 26.5637C14.8313 26.5756 14.8511 26.5915 14.8759 26.6057Z" fill="#222222" stroke="#EBEBEB" stroke-width="0.5"/>
</svg>
