<svg width="45" height="45" viewBox="0 0 45 45" fill="none" xmlns="http://www.w3.org/2000/svg">
<path d="M44.7015 19.5964C42.3252 17.8844 39.2658 17.4596 36.5172 18.4598C36.0145 18.6428 35.5337 18.8682 35.0779 19.1344L35.1752 17.9923C35.2697 16.8827 35.0726 15.8004 34.6147 14.8404H35.665C39.1527 14.8404 42.5846 12.066 43.3154 8.65568L44.9841 0.868588C45.0547 0.538823 44.8863 0.204312 44.5794 0.0646543C44.2727 -0.0751794 43.9097 0.0175451 43.7074 0.287369L40.2606 4.88307C39.1317 6.3882 36.5887 7.65962 34.7074 7.65962H31.6398C30.999 7.06601 30.1425 6.70214 29.2021 6.70214H15.7979C14.8576 6.70214 14.0011 7.06601 13.3603 7.65962H10.2927C8.41137 7.65962 5.86834 6.38811 4.73948 4.88307L1.29277 0.287369C1.09062 0.0175451 0.727719 -0.0750036 0.420718 0.0646543C0.113629 0.2044 -0.0545937 0.538999 0.0159823 0.868676L1.68467 8.65577C2.41548 12.0661 5.84743 14.8405 9.3351 14.8405H10.3854C9.92748 15.8005 9.73043 16.8828 9.82482 17.9925L9.92212 19.1345C9.46632 18.8684 8.98555 18.6429 8.48291 18.4599C5.73431 17.4597 2.67476 17.8844 0.29855 19.5965C0.0593123 19.7688 -0.0502871 20.0698 0.0222225 20.3557C0.742221 23.1946 2.81274 25.4868 5.56134 26.4873C6.53315 26.8409 7.55663 27.0179 8.58038 27.0179C9.24975 27.0179 9.91878 26.9403 10.5736 26.7886L10.7656 29.0443C10.9277 30.9505 11.9569 32.7745 13.5377 33.9822L14.7459 41.5584C15.0485 43.4561 16.8581 44.9999 18.7797 44.9999H26.2204C28.142 44.9999 29.9516 43.456 30.2543 41.5584L31.4625 33.9822C33.0433 32.7745 34.0725 30.9504 34.2345 29.0443L34.4265 26.7886C35.0813 26.9403 35.7504 27.0178 36.4198 27.0178C37.4433 27.0178 38.4671 26.8407 39.4388 26.4872C42.1872 25.4867 44.2579 23.1946 44.9779 20.3557C45.0503 20.0698 44.9408 19.7687 44.7015 19.5964ZM32.5867 9.09575H34.7074C37.0562 9.09584 40.0002 7.62385 41.4095 5.74484L42.8947 3.76467L41.911 8.35483C41.3246 11.0918 38.4642 13.4043 35.665 13.4043H33.3292C33.324 13.4042 33.3188 13.4043 33.3137 13.4043H32.5868C32.7196 13.0297 32.7926 12.6271 32.7926 12.2075V10.2926C32.7925 9.87297 32.7195 9.47025 32.5867 9.09575ZM9.33518 13.4044C6.53596 13.4043 3.67556 11.0919 3.08916 8.35483L2.1054 3.76467L3.59058 5.74484C4.9999 7.62394 7.94388 9.09593 10.2927 9.09593H12.4134C12.2805 9.47051 12.2075 9.87314 12.2075 10.2927V12.2076C12.2075 12.6272 12.2806 13.0298 12.4134 13.4044H11.6855C11.6809 13.4044 11.6762 13.4043 11.6717 13.4044H9.33518ZM28.836 41.3323C28.643 42.5418 27.4453 43.5638 26.2204 43.5638H23.2182V40.9962H25.3725C25.7691 40.9962 26.0905 40.6747 26.0905 40.2781V39.3207C26.0905 38.9241 25.7691 38.6026 25.3725 38.6026C24.9758 38.6026 24.6544 38.9241 24.6544 39.3207V39.56H20.3458V39.3207C20.3458 38.9241 20.0244 38.6026 19.6278 38.6026C19.2311 38.6026 18.9097 38.9241 18.9097 39.3207V40.2781C18.9097 40.6747 19.2311 40.9962 19.6278 40.9962H21.7821V43.5638H18.7798C17.555 43.5638 16.3571 42.5419 16.1643 41.3323L15.4999 37.1664H29.5005L28.836 41.3323ZM38.9475 25.1374C37.5141 25.6591 36.0049 25.7266 34.5495 25.3414L34.7018 23.5531C34.7354 23.158 34.4424 22.8104 34.0472 22.7767C33.6538 22.7434 33.3044 23.0361 33.2708 23.4313L33.1252 25.142H28.0401C27.6435 25.142 27.3221 25.4635 27.3221 25.8601V27.7749C27.3221 28.1715 27.6435 28.493 28.0401 28.493C28.4368 28.493 28.7582 28.1715 28.7582 27.7749V26.5781H33.0029L32.8034 28.9224C32.6685 30.5078 31.7659 32.0276 30.389 32.9879C30.229 33.0994 30.1213 33.2712 30.0907 33.4638L29.7294 35.73H15.2707L14.9093 33.4638C14.8786 33.2713 14.7709 33.0994 14.611 32.9879C13.234 32.0276 12.3315 30.5077 12.1965 28.9223L11.997 26.5781H16.2419V27.7749C16.2419 28.1715 16.5633 28.493 16.9599 28.493C17.3566 28.493 17.678 28.1715 17.678 27.7749V25.8601C17.678 25.4635 17.3566 25.142 16.9599 25.142H11.8749L11.7292 23.4313C11.6957 23.0361 11.3471 22.7438 10.9529 22.7767C10.5577 22.8104 10.2647 23.158 10.2983 23.5531L10.4505 25.3413C8.99514 25.7266 7.48579 25.659 6.05256 25.1373C3.90839 24.357 2.25666 22.6372 1.55354 20.4828C3.4772 19.2846 5.84787 19.029 7.99178 19.8092C8.8437 20.1193 9.62021 20.5749 10.2996 21.1628C10.5204 21.3539 10.8351 21.3923 11.0955 21.2597C11.3559 21.1271 11.5099 20.85 11.485 20.5589L11.2559 17.8704C11.1622 16.768 11.4406 15.705 12.0415 14.8403H13.3603C14.001 15.4339 14.8576 15.7977 15.7979 15.7977C16.1946 15.7977 16.516 15.4762 16.516 15.0797C16.516 14.6831 16.1946 14.3616 15.7979 14.3616C15.1776 14.3616 14.6181 14.0978 14.2247 13.6768C14.2062 13.6533 14.1863 13.6309 14.1649 13.6101C13.8404 13.2328 13.6437 12.7429 13.6437 12.2075V10.2926C13.6437 9.75721 13.8405 9.26722 14.1649 8.89009C14.1863 8.86908 14.2061 8.84684 14.2247 8.82338C14.6181 8.40238 15.1777 8.13854 15.7979 8.13854H29.2021C29.8224 8.13854 30.382 8.40238 30.7754 8.82338C30.7939 8.84684 30.8138 8.86926 30.8351 8.89009C31.1596 9.26731 31.3563 9.75721 31.3563 10.2926V12.2075C31.3563 12.7429 31.1595 13.2329 30.8351 13.6101C30.8138 13.6311 30.794 13.6533 30.7754 13.6768C30.382 14.0978 29.8223 14.3616 29.2021 14.3616C28.8055 14.3616 28.4841 14.6831 28.4841 15.0797C28.4841 15.4762 28.8055 15.7977 29.2021 15.7977C30.1425 15.7977 30.999 15.4339 31.6398 14.8403H32.9586C33.5595 15.705 33.8381 16.7679 33.7442 17.8703L33.5151 20.5589C33.4902 20.8501 33.6444 21.1272 33.9046 21.2597C34.1649 21.3924 34.4797 21.3539 34.7005 21.1628C35.38 20.5747 36.1564 20.1193 37.0084 19.8092C39.1526 19.0289 41.5232 19.2846 43.4466 20.4829C42.7434 22.6373 41.0917 24.357 38.9475 25.1374Z" fill="#222222"/>
</svg>
