<svg width="37" height="46" viewBox="0 0 37 46" fill="none" xmlns="http://www.w3.org/2000/svg">
<path d="M16.8789 12.6373L16.1959 12.7425C14.833 12.9523 13.3815 13.8296 12.0802 15.1193C10.7774 16.4105 9.61712 18.1229 8.83867 20.0186M16.8789 12.6373L7.65403 24.5827L7.55403 24.5819C7.55542 24.4079 7.60257 24.1212 7.67802 23.7749C7.75408 23.4259 7.86075 23.0084 7.98486 22.5685C8.23296 21.6893 8.55213 20.7163 8.83867 20.0186M16.8789 12.6373V12.6175H16.9789H17.007M16.8789 12.6373L17.007 12.6175M8.83867 20.0186C8.83867 20.0186 8.83868 20.0186 8.83868 20.0186L8.93118 20.0566L8.83867 20.0186ZM28.7468 35.2175L28.6556 35.1765L28.6555 35.1766L28.6554 35.1768L28.6549 35.1779L28.6527 35.1829L28.6433 35.2026C28.6398 35.2099 28.6356 35.2186 28.6306 35.2284C28.624 35.2418 28.6162 35.2572 28.6072 35.2743C28.5758 35.3341 28.5313 35.4131 28.4784 35.4913C28.425 35.5702 28.3656 35.6445 28.3051 35.6976C28.2427 35.7524 28.1924 35.7732 28.1553 35.7724C28.1252 35.7717 28.0774 35.7559 28.0187 35.6666C27.9589 35.5756 27.8972 35.421 27.8426 35.1742C27.7337 34.6819 27.6595 33.8546 27.6595 32.521C27.6595 32.5092 27.6595 32.4974 27.6595 32.4857C27.655 32.4763 27.6471 32.4625 27.6339 32.45C27.6245 32.441 27.6093 32.4298 27.5879 32.4241C27.5783 32.4216 27.5687 32.4205 27.5594 32.4207C27.5595 32.4539 27.5595 32.4874 27.5595 32.521M28.7468 35.2175C27.8391 37.0153 27.6968 34.46 27.6255 33.1784C27.6117 32.9306 27.6006 32.7304 27.587 32.6185C27.5903 32.6166 27.5933 32.6151 27.5961 32.614C27.5931 32.6152 27.59 32.6162 27.5869 32.6171C27.585 32.6016 27.5831 32.5878 27.5811 32.5759C27.5756 32.5428 27.5696 32.5237 27.5629 32.521C27.5617 32.5205 27.5606 32.5205 27.5595 32.521M28.7468 35.2175L28.836 35.2626C28.6866 35.5586 28.5504 35.7535 28.4212 35.8538C28.3551 35.9052 28.2832 35.9376 28.207 35.9378C28.129 35.9379 28.0627 35.9042 28.0095 35.8547C27.9092 35.7615 27.839 35.5974 27.7855 35.4128C27.7306 35.2232 27.6883 34.9922 27.6547 34.7465C27.5875 34.2549 27.5541 33.6921 27.5298 33.2582C27.5284 33.2331 27.527 33.2083 27.5257 33.1841C27.5155 33.0015 27.5069 32.8465 27.4977 32.7334M28.7468 35.2175C28.7468 35.2175 27.5773 37.8228 27.5597 32.6404C27.5402 32.66 27.5183 32.6902 27.4977 32.7334M27.5595 32.521C27.5322 32.5317 27.506 32.5511 27.4818 32.5771C27.4818 32.5772 27.4819 32.5773 27.482 32.5774C27.4841 32.581 27.4885 32.5877 27.4961 32.5949C27.5038 32.6022 27.5171 32.6123 27.5367 32.6175C27.5444 32.6195 27.5521 32.6205 27.5596 32.6206C27.5595 32.5877 27.5595 32.5545 27.5595 32.521ZM27.5699 24.9812C27.5685 24.9756 27.567 24.97 27.5655 24.9644C27.5643 24.9595 27.5629 24.9547 27.5616 24.9497C27.5268 24.9673 27.4962 24.9836 27.4711 24.9984C27.4751 25.0139 27.4788 25.0287 27.482 25.0428C27.5103 25.022 27.5396 25.0015 27.5699 24.9812ZM27.5699 24.9812C27.6663 24.9168 27.7737 24.854 27.8965 24.787C28.104 24.686 28.3739 24.5508 28.6979 24.3694L28.7468 24.4567M27.5699 24.9812C27.5759 25.0044 27.5813 25.0274 27.5859 25.0496C27.6382 25.0226 27.707 24.9895 27.791 24.9491C27.8368 24.927 27.8872 24.9028 27.9419 24.8761M27.4977 32.7334C27.4962 32.7365 27.4947 32.7397 27.4932 32.743C27.4807 32.7708 27.4697 32.8013 27.4609 32.8336C27.4602 32.7587 27.4597 32.682 27.4595 32.6036C27.4662 32.5949 27.473 32.5867 27.48 32.5791C27.4804 32.5812 27.4809 32.5838 27.4815 32.5868C27.4867 32.6158 27.4919 32.6628 27.4972 32.7276C27.4974 32.7295 27.4976 32.7314 27.4977 32.7334ZM27.4987 25.1555C27.4987 25.1838 27.4993 25.2246 27.5004 25.2808L27.56 25.2344C27.5729 25.2245 27.5859 25.2146 27.5991 25.2049C27.5988 25.1856 27.5987 25.1694 27.5987 25.1559M27.4987 25.1555H27.562C27.5578 25.173 27.5493 25.1837 27.5478 25.1855C27.546 25.1878 27.5447 25.189 27.5445 25.1892C27.5442 25.1895 27.5454 25.1884 27.5486 25.186C27.5593 25.1782 27.5758 25.1683 27.5987 25.1559M27.4987 25.1555L27.4717 25.1207C27.4563 25.1379 27.4647 25.1488 27.4987 25.1555ZM27.5987 25.1559C27.6338 25.1369 27.684 25.1118 27.752 25.0789C27.7775 25.0666 27.805 25.0533 27.8343 25.0392C27.8806 25.0169 27.9317 24.9923 27.9873 24.9653C28.1078 24.8995 28.2461 24.8283 28.4085 24.7446C28.5238 24.6853 28.6513 24.6196 28.7932 24.5452L28.7468 24.4567M27.5987 25.1559C27.5987 25.1558 27.5987 25.1556 27.5987 25.1555V25.0825C27.6983 25.014 27.8104 24.9479 27.9419 24.8761M28.7468 24.4567C28.6084 24.5292 28.4831 24.5937 28.3689 24.6525C28.2058 24.7365 28.0653 24.8088 27.9419 24.8761M28.7468 24.4567C28.4214 24.6388 28.15 24.7748 27.9419 24.8761M17.007 12.6175L17.0789 12.6065V12.6175M17.007 12.6175H17.0789M17.0789 12.6175H17.4968H17.4968L18.0147 12.6179L18.0229 12.6179L18.0309 12.6192L18.7556 12.7384C18.7556 12.7384 18.7556 12.7384 18.7556 12.7384C19.7018 12.8937 20.7889 13.4289 21.8079 14.1806C22.8282 14.9331 23.7883 15.9084 24.4788 16.9537C25.8294 18.998 27.0445 22.0256 27.3482 24.1105L27.2492 24.1249L17.0789 12.6175ZM21.2448 21.5132L21.1497 21.4825C21.1993 21.3289 21.2942 21.1672 21.405 21.029C21.5154 20.8913 21.6484 20.7685 21.7798 20.6997L21.2448 21.5132ZM21.2448 21.5132L21.1497 21.4825C20.9537 22.089 21.2678 22.6371 21.7255 22.9178M21.2448 21.5132L21.7255 22.9178M21.7255 22.9178C22.1833 23.1985 22.8112 23.2276 23.2552 22.7717M21.7255 22.9178L23.2552 22.7717M23.2552 22.7717C23.8021 22.2101 23.7543 21.3444 23.1469 20.8538L23.2552 22.7717ZM4.66107 24.105L4.70331 24.0144L4.66107 24.105ZM7.39707 32.448L7.4912 32.4032L7.47484 32.3003L7.3807 32.3451L7.39707 32.448ZM27.3364 33.0131L27.4364 33.0133C27.4364 33.0133 27.4364 33.0133 27.4364 33.0132L27.3364 33.0131ZM1.63945 34.8871L1.61997 34.9852L1.62009 34.9852L1.63945 34.8871ZM12.7645 15.95C14.0062 14.7166 15.415 13.9655 16.8789 13.8043V15.268H16.9789H17.0789V13.7859C18.0771 13.7129 19.0984 13.9147 20.1076 14.4249L20.1527 14.3357L20.1076 14.4249C23.232 16.0045 25.3939 19.8492 26.2602 24.3708C27.1258 28.8884 26.6919 34.0554 24.6528 38.2493C23.0306 41.5859 20.9083 43.4552 18.2845 43.9017C16.3213 44.2358 14.3169 43.4358 12.5454 41.5844C9.38356 38.2798 7.73686 32.0673 8.45318 26.0673C8.98102 21.6467 10.6195 18.0806 12.7645 15.95ZM12.0085 20.6895L12.0085 20.6895C11.7613 20.8335 11.592 20.9708 11.4892 21.1675C11.3879 21.3615 11.3587 21.5999 11.3572 21.9274L11.3572 21.9275C11.3553 22.3386 11.4866 22.6403 11.7799 22.8512C12.2341 23.178 12.7386 23.2196 13.1337 23.0303C13.5297 22.8405 13.799 22.4265 13.7962 21.8792V21.8792C13.7946 21.5667 13.7622 21.335 13.654 21.1449C13.545 20.9535 13.3673 20.8188 13.1104 20.6799C12.8832 20.5571 12.7203 20.4813 12.5522 20.4827C12.3835 20.484 12.2257 20.563 12.0085 20.6895ZM4.78666 25.3216L7.12503 26.4158V28.8665V31.3175L4.96232 32.3472L5.0053 32.4375L4.96231 32.3472C4.35235 32.6377 3.76118 32.9137 3.3002 33.1243C2.8354 33.3366 2.51092 33.4788 2.42799 33.5058L2.42795 33.5058C2.39017 33.5181 2.37441 33.5199 2.36778 33.5194C2.36645 33.518 2.3638 33.5151 2.36019 33.5092C2.34731 33.4883 2.33092 33.4456 2.31553 33.363C2.30048 33.2823 2.28777 33.1717 2.27731 33.0215C2.23533 32.4184 2.23232 31.2245 2.23232 28.9085C2.23232 27.5896 2.24923 26.391 2.27645 25.5226C2.29006 25.0881 2.30622 24.7374 2.32404 24.4958C2.3324 24.3824 2.34101 24.2949 2.34959 24.2347C2.38697 24.2486 2.43478 24.2674 2.49236 24.2909C2.63075 24.3473 2.82194 24.4292 3.05237 24.5307C3.51302 24.7335 4.12822 25.0135 4.78666 25.3216Z" fill="#222222" stroke="#222222" stroke-width="0.2"/>
<path d="M27.3281 22.6616L34.787 22.2293L35.6183 32.9696L36.2806 38.3091L29.3752 39.1656L27.3281 22.6616Z" fill="#EBEBEB"/>
<path d="M14.0742 33.2607C16.8547 34.5502 18.3066 34.5799 20.922 33.2607" stroke="#222222" stroke-linecap="round"/>
<path d="M33.0694 32.3361V32.3361C33.0698 32.1659 33.0605 32.085 33.022 31.9654C32.9745 31.8184 32.8826 31.6152 32.6858 31.2112L33.0694 32.3361ZM33.0694 32.3361C33.0687 32.6272 32.9418 32.9962 32.7237 33.3212C32.4993 33.6554 32.2454 33.8458 32.0721 33.8923C31.9519 33.9245 31.7615 33.9237 31.5059 33.856C31.2565 33.79 30.9795 33.6691 30.7075 33.5053C30.1477 33.1682 29.7006 32.7065 29.538 32.3043C29.4944 32.1964 29.4742 32.1425 29.4583 32.0754C29.442 32.0065 29.4268 31.9075 29.4149 31.7217C29.3905 31.3408 29.3841 30.6839 29.373 29.3482C29.3655 28.4445 29.3667 27.7488 29.3766 27.2535C29.3816 27.0055 29.3886 26.8117 29.3975 26.6692C29.4019 26.5979 29.4066 26.5428 29.4111 26.5022C29.4155 26.4636 29.4186 26.4484 29.4186 26.4484C29.4186 26.4484 29.4185 26.4484 29.4185 26.4486C29.5351 25.9863 29.7746 25.5379 30.3006 24.8897C31.8568 22.9725 32.5364 21.5426 33.2408 18.7532C33.3872 18.1739 33.4957 17.7998 33.592 17.5462C33.6223 17.4666 33.6499 17.4029 33.6751 17.3514C33.722 17.4393 33.7672 17.5401 33.804 17.6458L33.804 17.6459C33.8595 17.8053 33.9181 18.1464 33.9632 18.6485C34.0068 19.1345 34.0343 19.7281 34.0441 20.3626C34.0638 21.6353 34.0114 23.0418 33.8825 24.0429C33.7286 25.2372 33.5485 25.8548 33.0437 26.9222C32.754 27.5347 32.525 28.1046 32.3736 28.5873C32.2291 29.0482 32.133 29.4964 32.1688 29.8339L32.1689 29.834M33.0694 32.3361L32.1689 29.834M32.1689 29.834C32.1865 30 32.2682 30.2363 32.3491 30.4451M32.1689 29.834L32.3491 30.4451M32.3491 30.4451C32.4387 30.6763 32.5569 30.9469 32.6857 31.2112L32.3491 30.4451Z" stroke="#222222"/>
<path d="M18.6978 9.31113C18.9992 9.63284 20.3684 11.3219 21.0965 12.2703M18.6978 9.31113L19.0627 8.96929C19.3384 9.26355 20.3999 10.5679 21.154 11.5294C21.1309 11.4397 21.1063 11.3473 21.0805 11.2527C20.8241 10.3124 20.4536 9.19539 20.1023 8.37939C18.868 5.51296 16.8617 3.09091 14.0305 1.07673C14.8716 2.98124 15.2704 4.72833 15.427 7.10544C15.5042 8.27549 15.4515 9.68278 15.2853 11.0348C15.8296 10.3124 16.2921 9.73671 16.6593 9.32561C16.8439 9.11903 17.011 8.94653 17.1571 8.81586C17.286 8.70058 17.4535 8.56627 17.6337 8.5074M18.6978 9.31113L19.0627 8.96927C18.8773 8.77143 18.6674 8.60085 18.4164 8.51013C18.1497 8.41375 17.8859 8.42498 17.6337 8.5074M18.6978 9.31113C18.3812 8.97317 18.1137 8.87654 17.789 8.98268M21.0965 12.2703L15.1541 12.0231C15.3044 11.8343 15.4846 11.6015 15.672 11.3525C16.7644 9.90146 17.5012 9.07671 17.789 8.98268M21.0965 12.2703C21.2107 12.4191 21.3059 12.5408 21.3861 12.6389L21.0965 12.2703ZM17.6337 8.5074L17.789 8.98268M17.6337 8.5074C17.6337 8.50741 17.6337 8.50741 17.6337 8.50741L17.789 8.98268" stroke="#222222"/>
<path d="M0 21.292L7.46876 21.4888L7.3935 32.2609L7.60419 37.6372L0.65122 37.9097L0 21.292Z" fill="#EBEBEB"/>
<path d="M16.5 14C16.5 14 16.4974 14 17.4974 14C18.4974 14 18.9992 14.0002 18.4992 14.0002C17.9992 14.0002 21.0343 16.1011 21.0343 16.1011L21.0701 17.0133L14.1171 17.2858L16.5 14Z" fill="#EBEBEB"/>
<path d="M27.2812 33.2608L27.7704 31.7935L29.7269 37.1739H27.7704L27.2812 33.2608Z" fill="#EBEBEB"/>
<path d="M1.86728 32.6972V32.6971C1.86684 32.5216 1.87632 32.4365 1.91597 32.3116C1.96421 32.1597 2.05732 31.9505 2.25548 31.5372L1.86728 32.6972ZM1.86728 32.6972C1.86803 33.0003 1.99764 33.3814 2.21825 33.7155C2.44557 34.0598 2.70239 34.2551 2.8765 34.3026C2.99663 34.3353 3.18753 34.3347 3.44469 34.2654C3.69561 34.1979 3.97455 34.0742 4.24868 33.9064C4.8121 33.5614 5.26475 33.0876 5.4302 32.6717C5.47416 32.5612 5.49494 32.5048 5.51126 32.4347C5.52805 32.3626 5.54343 32.26 5.55548 32.0692C5.58015 31.6785 5.58658 31.0052 5.59776 29.6379C5.60529 28.7125 5.60403 28 5.59406 27.4925C5.58907 27.2385 5.58196 27.0398 5.57304 26.8935C5.56858 26.8202 5.56386 26.7635 5.5592 26.7214C5.55528 26.6861 5.55226 26.6692 5.55154 26.6652C5.55133 26.6641 5.55131 26.664 5.5515 26.6647C5.43326 26.1876 5.19058 25.7265 4.6601 25.0621M1.86728 32.6972L2.77447 30.133M2.77447 30.133L2.77448 30.1329C2.81011 29.7918 2.71456 29.3363 2.56896 28.8644C2.41677 28.3711 2.18644 27.7884 1.89486 27.1617C1.38572 26.0672 1.20374 25.4331 1.0485 24.2082L0.552468 24.271L1.0485 24.2082C0.918429 23.1819 0.865705 21.7407 0.885491 20.4371C0.895358 19.787 0.923156 19.1787 0.967126 18.6805C1.0125 18.1663 1.07166 17.815 1.12841 17.6493L1.12841 17.6493C1.16623 17.5389 1.21265 17.4338 1.26091 17.3423C1.28696 17.3961 1.31557 17.463 1.34692 17.5469C1.44436 17.8075 1.55387 18.1914 1.70127 18.7847C2.41026 21.6384 3.09383 23.1004 4.6601 25.0621M2.77447 30.133C2.75699 30.3 2.67564 30.5398 2.59402 30.754M2.77447 30.133L2.59402 30.754M4.6601 25.0621L5.05083 24.7501L4.6601 25.0621ZM2.59402 30.754C2.50398 30.9902 2.38509 31.2669 2.2555 31.5372L2.59402 30.754Z" stroke="#222222"/>
</svg>
