<svg width="37" height="46" viewBox="0 0 37 46" fill="none" xmlns="http://www.w3.org/2000/svg">
<mask id="path-1-outside-1_1_2165" maskUnits="userSpaceOnUse" x="0.35791" y="11.7175" width="29" height="34" fill="black">
<rect fill="white" x="0.35791" y="11.7175" width="29" height="34"/>
<path fill-rule="evenodd" clip-rule="evenodd" d="M16.9813 15.268V12.723L16.2136 12.8413C13.545 13.2523 10.4806 16.2894 8.93362 20.0566C8.36444 21.4425 7.66165 23.9329 7.65647 24.5827C7.64957 25.4328 7.44327 25.3998 4.66351 24.105C3.17471 23.4113 1.82195 22.8706 1.65726 22.903C1.38035 22.9578 1.35791 23.4069 1.35791 28.8966C1.35791 34.2636 1.38501 34.8364 1.64189 34.8871C1.79813 34.9181 3.17506 34.3487 4.70166 33.6218L7.47728 32.3003L7.58017 32.9475C7.80994 34.3916 8.57126 36.8703 9.20621 38.2409C11.3647 42.9006 14.5758 45.3119 18.1642 44.9678C21.1375 44.6827 23.8541 42.3122 25.709 38.3843C26.4311 36.8554 27.338 33.8666 27.3388 33.0131C27.3392 32.7906 27.4395 32.5692 27.5619 32.521C27.6843 32.4728 27.5619 37.5691 28.7492 35.2175C28.7492 35.2175 27.5619 37.8625 27.5619 32.521C27.5619 26.9202 27.5011 25.4349 27.5011 25.1555C27.3281 25.1213 27.8173 24.9784 28.7492 24.4567C28.1294 24.7816 27.771 24.9458 27.5011 25.1555C27.5011 24.9958 27.3168 24.5718 27.2517 24.1249C26.9504 22.0568 25.7416 19.0429 24.3979 17.0088C23.0311 14.94 20.5916 13.1407 18.7418 12.837L18.0171 12.7179L17.4992 12.7175H16.9813V15.268ZM20.1552 14.3357C26.4838 17.5352 28.8451 29.8604 24.7452 38.293C23.1147 41.6468 20.9704 43.5464 18.3037 44.0003C16.2989 44.3414 14.263 43.5216 12.4756 41.6535C9.287 38.321 7.63765 32.0751 8.35633 26.0554C9.41579 17.1826 14.9377 11.6978 20.1552 14.3357ZM12.0612 20.7759C11.5779 21.0574 11.4627 21.278 11.4596 21.9279C11.4579 22.3141 11.5791 22.5819 11.8408 22.77C12.6974 23.3863 13.7038 22.9041 13.6987 21.8797C13.6954 21.2627 13.5687 21.0399 13.0653 20.7679C12.6052 20.5192 12.5006 20.5201 12.0612 20.7759ZM21.8287 20.7883C21.5988 20.9087 21.3372 21.2349 21.2473 21.5132C20.8904 22.6178 22.3791 23.5306 23.186 22.702C23.6923 22.182 23.6476 21.3847 23.0865 20.9315C22.5609 20.5068 22.4006 20.4885 21.8287 20.7883ZM4.83148 25.231L7.22748 26.3522V28.8665V31.3807L5.00774 32.4375C3.78705 33.0188 2.6411 33.5423 2.46139 33.6009C2.1465 33.7035 2.13476 33.5358 2.13476 28.9085C2.13476 26.2692 2.20244 24.1098 2.28513 24.1098C2.36782 24.1098 3.51359 24.6144 4.83148 25.231Z"/>
</mask>
<path fill-rule="evenodd" clip-rule="evenodd" d="M16.9813 15.268V12.723L16.2136 12.8413C13.545 13.2523 10.4806 16.2894 8.93362 20.0566C8.36444 21.4425 7.66165 23.9329 7.65647 24.5827C7.64957 25.4328 7.44327 25.3998 4.66351 24.105C3.17471 23.4113 1.82195 22.8706 1.65726 22.903C1.38035 22.9578 1.35791 23.4069 1.35791 28.8966C1.35791 34.2636 1.38501 34.8364 1.64189 34.8871C1.79813 34.9181 3.17506 34.3487 4.70166 33.6218L7.47728 32.3003L7.58017 32.9475C7.80994 34.3916 8.57126 36.8703 9.20621 38.2409C11.3647 42.9006 14.5758 45.3119 18.1642 44.9678C21.1375 44.6827 23.8541 42.3122 25.709 38.3843C26.4311 36.8554 27.338 33.8666 27.3388 33.0131C27.3392 32.7906 27.4395 32.5692 27.5619 32.521C27.6843 32.4728 27.5619 37.5691 28.7492 35.2175C28.7492 35.2175 27.5619 37.8625 27.5619 32.521C27.5619 26.9202 27.5011 25.4349 27.5011 25.1555C27.3281 25.1213 27.8173 24.9784 28.7492 24.4567C28.1294 24.7816 27.771 24.9458 27.5011 25.1555C27.5011 24.9958 27.3168 24.5718 27.2517 24.1249C26.9504 22.0568 25.7416 19.0429 24.3979 17.0088C23.0311 14.94 20.5916 13.1407 18.7418 12.837L18.0171 12.7179L17.4992 12.7175H16.9813V15.268ZM20.1552 14.3357C26.4838 17.5352 28.8451 29.8604 24.7452 38.293C23.1147 41.6468 20.9704 43.5464 18.3037 44.0003C16.2989 44.3414 14.263 43.5216 12.4756 41.6535C9.287 38.321 7.63765 32.0751 8.35633 26.0554C9.41579 17.1826 14.9377 11.6978 20.1552 14.3357ZM12.0612 20.7759C11.5779 21.0574 11.4627 21.278 11.4596 21.9279C11.4579 22.3141 11.5791 22.5819 11.8408 22.77C12.6974 23.3863 13.7038 22.9041 13.6987 21.8797C13.6954 21.2627 13.5687 21.0399 13.0653 20.7679C12.6052 20.5192 12.5006 20.5201 12.0612 20.7759ZM21.8287 20.7883C21.5988 20.9087 21.3372 21.2349 21.2473 21.5132C20.8904 22.6178 22.3791 23.5306 23.186 22.702C23.6923 22.182 23.6476 21.3847 23.0865 20.9315C22.5609 20.5068 22.4006 20.4885 21.8287 20.7883ZM4.83148 25.231L7.22748 26.3522V28.8665V31.3807L5.00774 32.4375C3.78705 33.0188 2.6411 33.5423 2.46139 33.6009C2.1465 33.7035 2.13476 33.5358 2.13476 28.9085C2.13476 26.2692 2.20244 24.1098 2.28513 24.1098C2.36782 24.1098 3.51359 24.6144 4.83148 25.231Z" fill="#E70000"/>
<path d="M27.5011 25.1555L27.5078 25.2553L27.5303 25.2537L27.55 25.2427L27.5011 25.1555ZM28.7492 24.4567L28.7981 24.5439L28.7026 24.3682L28.7492 24.4567ZM18.0171 12.7179H18.1171V12.6174L18.0166 12.6179L18.0171 12.7179ZM17.9171 12.7179V15.2655H18.1171V12.7179H17.9171ZM27.55 25.2427L28.7981 24.5439L28.7004 24.3694L27.4523 25.0682L27.55 25.2427ZM28.7026 24.3682C28.358 24.5495 28.0148 24.727 27.7737 24.8576C27.6537 24.9226 27.5558 24.9777 27.495 25.0166C27.468 25.0338 27.4371 25.0547 27.4183 25.0755C27.4132 25.081 27.4032 25.0928 27.3961 25.1096C27.3888 25.1265 27.3778 25.1668 27.4041 25.2073C27.427 25.2427 27.4618 25.2511 27.4731 25.2534C27.4875 25.2562 27.5003 25.2558 27.5078 25.2553L27.4944 25.0557C27.4946 25.0557 27.5014 25.0551 27.5115 25.0571C27.5184 25.0584 27.5504 25.0653 27.5719 25.0986C27.5968 25.137 27.5858 25.1744 27.5801 25.1879C27.5744 25.2013 27.5672 25.209 27.5664 25.2099C27.5644 25.212 27.5722 25.2046 27.6027 25.1851C27.6567 25.1506 27.7486 25.0986 27.869 25.0334C28.1087 24.9036 28.4489 24.7277 28.7958 24.5452L28.7026 24.3682ZM16.9818 12.823L18.0176 12.8179L18.0166 12.6179L16.9808 12.623L16.9818 12.823ZM16.9813 12.723H17.1813V12.4899L16.9509 12.5254L16.9813 12.723ZM16.2136 12.8413L16.244 13.039L16.2441 13.039L16.2136 12.8413ZM8.93362 20.0566L9.11862 20.1326L9.11863 20.1326L8.93362 20.0566ZM7.65647 24.5827L7.85646 24.5843V24.5843L7.65647 24.5827ZM4.66351 24.105L4.57904 24.2863L4.57907 24.2863L4.66351 24.105ZM1.65726 22.903L1.6186 22.7068L1.61844 22.7068L1.65726 22.903ZM1.64189 34.8871L1.68085 34.6909L1.68062 34.6909L1.64189 34.8871ZM4.70166 33.6218L4.61569 33.4412L4.61568 33.4412L4.70166 33.6218ZM7.47728 32.3003L7.6748 32.2689L7.63281 32.0047L7.3913 32.1197L7.47728 32.3003ZM7.58017 32.9475L7.38265 32.9789L7.38265 32.979L7.58017 32.9475ZM9.20621 38.2409L9.38768 38.1568L9.38768 38.1568L9.20621 38.2409ZM18.1642 44.9678L18.1451 44.7687H18.1451L18.1642 44.9678ZM25.709 38.3843L25.5282 38.2989L25.5282 38.2989L25.709 38.3843ZM27.3388 33.0131L27.1388 33.0128V33.0129L27.3388 33.0131ZM28.7492 35.2175L28.9317 35.2994L28.5707 35.1274L28.7492 35.2175ZM28.7492 24.4567L28.8469 24.6312L28.6564 24.2795L28.7492 24.4567ZM27.2517 24.1249L27.4496 24.0961V24.0961L27.2517 24.1249ZM24.3979 17.0088L24.5647 16.8986V16.8986L24.3979 17.0088ZM18.7418 12.837L18.7094 13.0344L18.7094 13.0344L18.7418 12.837ZM18.0171 12.7179L18.0496 12.5206L18.0335 12.5179L18.0173 12.5179L18.0171 12.7179ZM17.4992 12.7175L17.4994 12.5175H17.4992V12.7175ZM16.9813 12.7175V12.5175H16.7813V12.7175H16.9813ZM20.1552 14.3357L20.065 14.5142L20.065 14.5142L20.1552 14.3357ZM24.7452 38.293L24.5653 38.2056V38.2056L24.7452 38.293ZM18.3037 44.0003L18.3372 44.1975L18.3372 44.1975L18.3037 44.0003ZM12.4756 41.6535L12.331 41.7918L12.3311 41.7918L12.4756 41.6535ZM8.35633 26.0554L8.15774 26.0317L8.15774 26.0317L8.35633 26.0554ZM12.0612 20.7759L11.9606 20.6031L11.9606 20.6031L12.0612 20.7759ZM11.4596 21.9279L11.2596 21.927V21.927L11.4596 21.9279ZM11.8408 22.77L11.9576 22.6077L11.9575 22.6076L11.8408 22.77ZM13.6987 21.8797L13.8987 21.8787V21.8786L13.6987 21.8797ZM13.0653 20.7679L12.9702 20.9438L12.9702 20.9439L13.0653 20.7679ZM21.8287 20.7883L21.9215 20.9655L21.9216 20.9654L21.8287 20.7883ZM21.2473 21.5132L21.057 21.4517L21.057 21.4518L21.2473 21.5132ZM23.186 22.702L23.3292 22.8415L23.186 22.702ZM23.0865 20.9315L22.9608 21.0871L22.9609 21.0871L23.0865 20.9315ZM4.83148 25.231L4.91625 25.0499L4.91624 25.0499L4.83148 25.231ZM7.22748 26.3522H7.42747V26.225L7.31224 26.171L7.22748 26.3522ZM7.22748 31.3807L7.31345 31.5612L7.42747 31.5069V31.3807H7.22748ZM5.00774 32.4375L4.92177 32.2569L4.92175 32.2569L5.00774 32.4375ZM2.46139 33.6009L2.39948 33.4107L2.3994 33.4107L2.46139 33.6009ZM17.1813 15.268V12.723H16.7813V15.268H17.1813ZM16.9509 12.5254L16.1832 12.6436L16.2441 13.039L17.0118 12.9207L16.9509 12.5254ZM16.1832 12.6436C14.7916 12.8579 13.3217 13.7504 12.0122 15.0483C10.6997 16.3492 9.53202 18.0729 8.74861 19.9807L9.11863 20.1326C9.8822 18.2731 11.0202 16.5947 12.2938 15.3324C13.5704 14.0672 14.967 13.2356 16.244 13.039L16.1832 12.6436ZM8.74861 19.9806C8.46012 20.6831 8.13976 21.66 7.89106 22.5414C7.76658 22.9825 7.65936 23.4021 7.58276 23.7537C7.50736 24.0996 7.45796 24.3955 7.45648 24.5811L7.85646 24.5843C7.85758 24.4449 7.89796 24.1858 7.97358 23.8388C8.048 23.4973 8.15303 23.0859 8.27603 22.65C8.52232 21.7772 8.83795 20.816 9.11862 20.1326L8.74861 19.9806ZM7.45648 24.581C7.45563 24.6851 7.45168 24.7661 7.44213 24.8295C7.4324 24.8942 7.41898 24.9249 7.41008 24.9383C7.40547 24.9452 7.40207 24.9494 7.38646 24.9536C7.3637 24.9599 7.31719 24.9644 7.23133 24.9507C7.05754 24.9229 6.79071 24.8329 6.38017 24.661C5.97398 24.4908 5.44331 24.2476 4.74796 23.9237L4.57907 24.2863C5.27359 24.6098 5.81112 24.8563 6.22563 25.0299C6.63579 25.2017 6.94218 25.3096 7.16829 25.3457C7.28238 25.3639 7.39251 25.3668 7.49231 25.3394C7.59929 25.31 7.6844 25.2485 7.74354 25.1592C7.79839 25.0764 7.82394 24.9803 7.83767 24.8891C7.85157 24.7967 7.85558 24.6928 7.85646 24.5843L7.45648 24.581ZM4.74798 23.9238C4.001 23.5757 3.28714 23.2655 2.73809 23.046C2.46393 22.9364 2.22851 22.8484 2.04958 22.7896C1.96047 22.7603 1.88207 22.7371 1.81826 22.7222C1.78647 22.7147 1.75508 22.7085 1.72593 22.705C1.70094 22.702 1.6606 22.6985 1.6186 22.7068L1.69591 23.0992C1.67451 23.1035 1.66403 23.1004 1.67768 23.1021C1.68716 23.1032 1.70318 23.106 1.72705 23.1116C1.77456 23.1228 1.84049 23.1419 1.92462 23.1696C2.09218 23.2247 2.31888 23.3092 2.5896 23.4174C3.13031 23.6336 3.83722 23.9407 4.57904 24.2863L4.74798 23.9238ZM1.61844 22.7068C1.55509 22.7194 1.4833 22.7473 1.42061 22.8126C1.36294 22.8727 1.32739 22.9496 1.30224 23.0327C1.25319 23.1947 1.22403 23.4506 1.20399 23.8517C1.16345 24.6634 1.15791 26.1545 1.15791 28.8967H1.55791C1.55791 26.149 1.56359 24.6707 1.6035 23.8717C1.62368 23.4675 1.65205 23.2577 1.68509 23.1486C1.70099 23.0961 1.71262 23.086 1.70917 23.0896C1.70072 23.0984 1.6902 23.1004 1.69607 23.0992L1.61844 22.7068ZM1.15791 28.8967C1.15791 31.5777 1.16463 33.0686 1.2038 33.8949C1.2232 34.3043 1.25107 34.5682 1.29593 34.736C1.31852 34.8206 1.34995 34.8992 1.40106 34.9618C1.45848 35.0321 1.52972 35.0688 1.60316 35.0833L1.68062 34.6909C1.68985 34.6927 1.70405 34.7004 1.71082 34.7087C1.71128 34.7093 1.69845 34.6929 1.68237 34.6328C1.6499 34.5113 1.62283 34.287 1.60335 33.876C1.56474 33.0615 1.55791 31.5825 1.55791 28.8967H1.15791ZM1.60294 35.0833C1.64684 35.092 1.68881 35.0874 1.71274 35.0841C1.74167 35.0801 1.77292 35.0733 1.80453 35.0654C1.86805 35.0493 1.94669 35.0247 2.03648 34.9937C2.21681 34.9315 2.45543 34.8388 2.73432 34.7235C3.29282 34.4925 4.02195 34.1669 4.78764 33.8023L4.61568 33.4412C3.85477 33.8035 3.13213 34.1261 2.58146 34.3538C2.30576 34.4678 2.07544 34.5571 1.90595 34.6156C1.82083 34.645 1.75434 34.6655 1.70669 34.6775C1.68272 34.6836 1.66687 34.6866 1.65772 34.6879C1.64357 34.6898 1.65648 34.6861 1.68085 34.6909L1.60294 35.0833ZM4.78764 33.8023L7.56325 32.4808L7.3913 32.1197L4.61569 33.4412L4.78764 33.8023ZM7.27976 32.3317L7.38265 32.9789L7.77769 32.9161L7.6748 32.2689L7.27976 32.3317ZM7.38265 32.979C7.61542 34.4418 8.38229 36.9381 9.02473 38.3249L9.38768 38.1568C8.76023 36.8024 8.00447 34.3413 7.77768 32.9161L7.38265 32.979ZM9.02473 38.3249C11.2005 43.022 14.4739 45.5226 18.1833 45.1669L18.1451 44.7687C14.6778 45.1012 11.5288 42.7792 9.38768 38.1568L9.02473 38.3249ZM18.1833 45.1669C21.2558 44.8723 24.0198 42.4296 25.8899 38.4697L25.5282 38.2989C23.6883 42.1947 21.0192 44.4931 18.1451 44.7687L18.1833 45.1669ZM25.8899 38.4697C26.2567 37.6929 26.6673 36.5532 26.9858 35.5035C27.1453 34.9778 27.2826 34.4717 27.3804 34.0418C27.4769 33.6171 27.5386 33.2511 27.5388 33.0133L27.1388 33.0129C27.1387 33.2019 27.0866 33.5295 26.9903 33.9531C26.8952 34.3714 26.7606 34.868 26.603 35.3873C26.2874 36.4276 25.8834 37.5468 25.5282 38.2989L25.8899 38.4697ZM27.5388 33.0134C27.539 32.9301 27.5582 32.8472 27.5868 32.7843C27.6192 32.7126 27.646 32.7028 27.6352 32.7071L27.4886 32.3349C27.3554 32.3874 27.2708 32.5124 27.2224 32.6192C27.1701 32.7346 27.1391 32.8736 27.1388 33.0128L27.5388 33.0134ZM27.6352 32.7071C27.5991 32.7213 27.5565 32.7255 27.5136 32.7141C27.4735 32.7035 27.4458 32.6828 27.4296 32.6674C27.4009 32.6401 27.3897 32.6119 27.388 32.608C27.3827 32.595 27.3829 32.5899 27.3855 32.6045C27.3898 32.6284 27.3947 32.6713 27.4 32.7358C27.4104 32.8626 27.4201 33.0449 27.4324 33.2638C27.4566 33.6972 27.4902 34.2639 27.558 34.7601C27.5919 35.0079 27.6351 35.2443 27.6919 35.4406C27.7458 35.6269 27.822 35.8147 27.9438 35.9279C28.0109 35.9903 28.1005 36.038 28.2096 36.0378C28.315 36.0376 28.4079 35.9926 28.485 35.9328C28.6328 35.818 28.7772 35.6058 28.9277 35.3077L28.5707 35.1274C28.4244 35.4172 28.3129 35.56 28.2397 35.6168C28.2062 35.6428 28.1973 35.6378 28.2089 35.6378C28.2241 35.6377 28.2278 35.6458 28.2162 35.635C28.1806 35.6019 28.1281 35.509 28.0762 35.3294C28.0271 35.1599 27.9871 34.9452 27.9544 34.7059C27.889 34.228 27.8561 33.6766 27.8318 33.2415C27.8197 33.0262 27.8096 32.8366 27.7987 32.7031C27.7933 32.6374 27.7871 32.5781 27.7792 32.5338C27.7757 32.5143 27.7695 32.4836 27.7573 32.4543C27.7523 32.4422 27.7376 32.4082 27.7053 32.3775C27.6873 32.3604 27.6578 32.3385 27.6159 32.3274C27.5711 32.3156 27.5266 32.3199 27.4886 32.3349L27.6352 32.7071ZM28.7492 35.2175C28.5668 35.1356 28.5668 35.1356 28.5668 35.1355C28.5668 35.1355 28.5668 35.1355 28.5668 35.1355C28.5668 35.1355 28.5668 35.1355 28.5668 35.1356C28.5667 35.1357 28.5666 35.136 28.5664 35.1364C28.566 35.1373 28.5653 35.1388 28.5644 35.1408C28.5625 35.1448 28.5596 35.1511 28.5557 35.1592C28.5478 35.1755 28.5361 35.1992 28.5211 35.2278C28.4908 35.2856 28.4482 35.3611 28.3981 35.4353C28.3469 35.5109 28.293 35.5773 28.2416 35.6225C28.1863 35.671 28.1599 35.6724 28.1599 35.6724C28.1739 35.6727 28.1525 35.6845 28.1047 35.6117C28.0546 35.5355 27.9962 35.3946 27.9427 35.1526C27.8362 34.6713 27.7619 33.8527 27.7619 32.521H27.3619C27.3619 33.86 27.436 34.7139 27.5521 35.239C27.6099 35.5002 27.6814 35.6959 27.7704 35.8314C27.8617 35.9703 27.9888 36.0688 28.1512 36.0723C28.2996 36.0755 28.4216 35.9967 28.5055 35.923C28.5932 35.846 28.6692 35.7484 28.7293 35.6594C28.7905 35.5691 28.8407 35.4797 28.8753 35.4137C28.8928 35.3804 28.9065 35.3525 28.9161 35.3327C28.9209 35.3227 28.9246 35.3148 28.9272 35.3091C28.9285 35.3063 28.9296 35.3041 28.9303 35.3024C28.9307 35.3016 28.931 35.301 28.9312 35.3005C28.9313 35.3002 28.9314 35.3 28.9315 35.2998C28.9315 35.2997 28.9316 35.2996 28.9316 35.2996C28.9316 35.2995 28.9317 35.2994 28.7492 35.2175ZM27.7619 32.521C27.7619 29.7199 27.7467 27.9474 27.7315 26.84C27.7162 25.7266 27.7011 25.2945 27.7011 25.1555H27.3011C27.3011 25.2959 27.3164 25.7462 27.3315 26.8455C27.3467 27.9507 27.3619 29.7213 27.3619 32.521H27.7619ZM27.5399 24.9593C27.5399 24.9593 27.5401 24.9593 27.5403 24.9594C27.5406 24.9594 27.541 24.9595 27.5415 24.9596C27.5425 24.9599 27.5443 24.9604 27.5466 24.9611C27.5507 24.9624 27.5596 24.9654 27.5709 24.9715C27.589 24.9812 27.6501 25.0194 27.6642 25.1043C27.6774 25.1839 27.6372 25.237 27.6283 25.248C27.6164 25.2629 27.6067 25.2692 27.61 25.2668C27.628 25.2536 27.682 25.2251 27.798 25.1689C28.0138 25.0644 28.3748 24.8955 28.8469 24.6312L28.6515 24.2822C28.1917 24.5396 27.8422 24.703 27.6236 24.8089C27.5226 24.8579 27.4284 24.9041 27.3742 24.9437C27.3595 24.9544 27.3365 24.9725 27.3161 24.998C27.2988 25.0196 27.255 25.0819 27.2696 25.1697C27.285 25.2628 27.3524 25.3082 27.3819 25.324C27.4133 25.3409 27.4442 25.3481 27.4623 25.3517L27.5399 24.9593ZM28.6564 24.2795C28.053 24.5958 27.6669 24.7734 27.3784 24.9976L27.6238 25.3134C27.875 25.1182 28.2059 24.9673 28.8421 24.6338L28.6564 24.2795ZM27.7011 25.1555C27.7011 25.0867 27.6828 25.0074 27.6646 24.9388C27.6453 24.8656 27.6188 24.7791 27.5925 24.6907C27.5383 24.5092 27.4798 24.3038 27.4496 24.0961L27.0538 24.1537C27.0886 24.393 27.1548 24.623 27.2091 24.8051C27.237 24.8985 27.2607 24.9758 27.2779 25.0411C27.2964 25.1108 27.3011 25.1445 27.3011 25.1555H27.7011ZM27.4496 24.0961C27.1434 21.9944 25.922 18.9531 24.5647 16.8986L24.231 17.1191C25.5612 19.1327 26.7574 22.1192 27.0538 24.1537L27.4496 24.0961ZM24.5647 16.8986C23.867 15.8424 22.8983 14.8588 21.8697 14.1001C20.8435 13.3432 19.7417 12.7985 18.7742 12.6397L18.7094 13.0344C19.5917 13.1792 20.6345 13.6861 21.6323 14.422C22.6275 15.1561 23.562 16.1065 24.231 17.1191L24.5647 16.8986ZM18.7743 12.6397L18.0496 12.5206L17.9847 12.9153L18.7094 13.0344L18.7743 12.6397ZM18.0173 12.5179L17.4994 12.5175L17.4991 12.9175L18.017 12.9179L18.0173 12.5179ZM17.4992 12.5175H16.9813V12.9175H17.4992V12.5175ZM16.7813 12.7175V15.268H17.1813V12.7175H16.7813ZM20.065 14.5142C23.1494 16.0736 25.3008 19.8818 26.1644 24.3896C27.0266 28.8896 26.5935 34.0341 24.5653 38.2056L24.9251 38.3805C26.9968 34.1193 27.433 28.8849 26.5573 24.3143C25.6831 19.7514 23.4895 15.7973 20.2454 14.1572L20.065 14.5142ZM24.5653 38.2056C22.9515 41.525 20.851 43.3639 18.2701 43.8031L18.3372 44.1975C21.0897 43.729 23.2778 41.7685 24.9251 38.3804L24.5653 38.2056ZM18.2701 43.8031C16.3485 44.1301 14.3756 43.35 12.6201 41.5153L12.3311 41.7918C14.1504 43.6932 16.2493 44.5527 18.3372 44.1975L18.2701 43.8031ZM12.6201 41.5153C9.48501 38.2387 7.84094 32.0595 8.55492 26.0791L8.15774 26.0317C7.43437 32.0907 9.089 38.4034 12.331 41.7918L12.6201 41.5153ZM8.55492 26.0791C9.08086 21.6745 10.7125 18.1316 12.8374 16.0209C14.9564 13.9161 17.5504 13.2429 20.065 14.5142L20.2454 14.1572C17.5424 12.7906 14.7667 13.5408 12.5555 15.7371C10.3503 17.9276 8.69126 21.5635 8.15774 26.0317L8.55492 26.0791ZM11.9606 20.6031C11.7079 20.7502 11.5189 20.8994 11.403 21.1212C11.2899 21.3378 11.2612 21.5968 11.2596 21.927L11.6596 21.9289C11.6611 21.6091 11.6915 21.4329 11.7576 21.3063C11.821 21.185 11.9312 21.0831 12.1619 20.9487L11.9606 20.6031ZM11.2596 21.927C11.2577 22.3633 11.399 22.6988 11.7241 22.9324L11.9575 22.6076C11.7592 22.4651 11.6581 22.2649 11.6596 21.9288L11.2596 21.927ZM11.724 22.9324C12.204 23.2777 12.7473 23.3275 13.1793 23.1205C13.6133 22.9125 13.9016 22.4611 13.8987 21.8787L13.4987 21.8807C13.5009 22.3227 13.2886 22.6246 13.0065 22.7597C12.7224 22.8959 12.3342 22.8786 11.9576 22.6077L11.724 22.9324ZM13.8987 21.8786C13.897 21.5622 13.8648 21.3088 13.7433 21.0954C13.6203 20.8794 13.4226 20.7336 13.1603 20.5919L12.9702 20.9439C13.2114 21.0742 13.3287 21.1758 13.3957 21.2934C13.4642 21.4137 13.4971 21.5802 13.4987 21.8808L13.8987 21.8786ZM13.1604 20.592C12.9361 20.4707 12.7514 20.3811 12.5539 20.3827C12.3549 20.3843 12.1753 20.478 11.9606 20.6031L12.1619 20.9487C12.3865 20.8179 12.4789 20.7833 12.5571 20.7827C12.6368 20.782 12.7344 20.8164 12.9702 20.9438L13.1604 20.592ZM21.7359 20.6111C21.588 20.6885 21.4449 20.8225 21.3295 20.9664C21.2131 21.1115 21.1112 21.2838 21.057 21.4517L21.4376 21.5747C21.4733 21.4643 21.5471 21.3343 21.6415 21.2167C21.7368 21.0978 21.8394 21.0084 21.9215 20.9655L21.7359 20.6111ZM21.057 21.4518C20.8435 22.1124 21.1886 22.7044 21.6757 23.003C22.1628 23.3018 22.8449 23.3389 23.3292 22.8415L23.0427 22.5624C22.7202 22.8936 22.2544 22.8887 21.8848 22.662C21.515 22.4353 21.2942 22.0186 21.4376 21.5747L21.057 21.4518ZM23.3292 22.8415C23.9168 22.2381 23.866 21.304 23.2122 20.776L22.9609 21.0871C23.4292 21.4654 23.4678 22.1258 23.0427 22.5624L23.3292 22.8415ZM23.2122 20.776C22.9538 20.5672 22.7402 20.4171 22.4976 20.3895C22.2521 20.3615 22.0183 20.4631 21.7359 20.6112L21.9216 20.9654C22.2111 20.8137 22.3433 20.7745 22.4523 20.7869C22.5642 20.7997 22.6936 20.8712 22.9608 21.0871L23.2122 20.776ZM4.74672 25.4122L7.14271 26.5333L7.31224 26.171L4.91625 25.0499L4.74672 25.4122ZM7.02747 26.3522V28.8665H7.42747V26.3522H7.02747ZM7.02747 28.8665V31.3807H7.42747V28.8665H7.02747ZM7.1415 31.2001L4.92177 32.2569L5.09372 32.6181L7.31345 31.5612L7.1415 31.2001ZM4.92175 32.2569C4.31219 32.5472 3.7215 32.823 3.26109 33.0333C2.79303 33.2472 2.47547 33.3859 2.39948 33.4107L2.5233 33.791C2.62702 33.7573 2.97229 33.605 3.42731 33.3971C3.88997 33.1858 4.4826 32.9091 5.09374 32.618L4.92175 32.2569ZM2.3994 33.4107C2.35956 33.4237 2.36337 33.4177 2.38171 33.42C2.39569 33.4218 2.41255 33.4272 2.42796 33.4379C2.44227 33.4478 2.44792 33.457 2.44774 33.4567C2.44469 33.4518 2.43099 33.4236 2.41628 33.3447C2.40225 33.2695 2.38986 33.1632 2.37951 33.0145C2.33784 32.4159 2.33476 31.2269 2.33476 28.9085H1.93476C1.93476 31.2174 1.93756 32.4259 1.98048 33.0423C1.99127 33.1974 2.00496 33.321 2.02305 33.418C2.04046 33.5114 2.06495 33.598 2.10728 33.6667C2.15646 33.7464 2.23218 33.8045 2.33219 33.817C2.41144 33.8268 2.48449 33.8037 2.52338 33.791L2.3994 33.4107ZM2.33476 28.9085C2.33476 27.5903 2.35167 26.3928 2.37884 25.5257C2.39244 25.0917 2.40855 24.7426 2.42621 24.5032C2.4351 24.3826 2.44408 24.2942 2.45265 24.2378C2.45474 24.2241 2.45664 24.2134 2.45829 24.2053C2.45911 24.2013 2.45979 24.1983 2.46032 24.1961C2.46086 24.1939 2.46113 24.193 2.46106 24.1933C2.46102 24.1934 2.46032 24.1957 2.45876 24.1995C2.45736 24.2029 2.45399 24.2107 2.44795 24.2206C2.44606 24.2237 2.39677 24.3098 2.28513 24.3098V23.9098C2.16832 23.9098 2.11389 24.0002 2.1069 24.0116C2.09122 24.0372 2.08283 24.0623 2.07857 24.0762C2.06915 24.107 2.06247 24.1431 2.0572 24.1777C2.04624 24.2497 2.03637 24.3506 2.02729 24.4738C2.00901 24.7217 1.99269 25.0774 1.97904 25.5132C1.9517 26.3856 1.93476 27.5875 1.93476 28.9085H2.33476ZM2.28513 24.3098C2.25782 24.3098 2.24101 24.303 2.25714 24.3077C2.26473 24.3099 2.27755 24.3141 2.2967 24.321C2.33456 24.3346 2.38821 24.3554 2.45704 24.3835C2.59419 24.4394 2.78442 24.5209 3.01451 24.6222C3.4743 24.8247 4.08879 25.1043 4.74673 25.4122L4.91624 25.0499C4.25629 24.7411 3.63894 24.4601 3.1757 24.2561C2.94428 24.1542 2.75019 24.0711 2.60807 24.0131C2.53726 23.9842 2.47753 23.9609 2.43176 23.9445C2.40909 23.9363 2.38753 23.9291 2.3686 23.9236C2.35822 23.9206 2.32278 23.9098 2.28513 23.9098V24.3098Z" fill="#E70000" mask="url(#path-1-outside-1_1_2165)"/>
<path d="M27.3286 22.6616L34.7875 22.2293L35.6188 32.9696L36.2811 38.3091L29.3757 39.1656L27.3286 22.6616Z" fill="#EBEBEB"/>
<path d="M14.0737 33.2607C16.8542 34.5502 18.3061 34.5799 20.9216 33.2607" stroke="#E70000" stroke-linecap="round"/>
<mask id="path-5-inside-2_1_2165" fill="white">
<path fill-rule="evenodd" clip-rule="evenodd" d="M33.4523 16.8C33.2141 17.0371 33.05 17.469 32.7566 18.6308C32.0667 21.3623 31.4157 22.7231 29.9129 24.5747C29.3621 25.2533 29.075 25.7672 28.934 26.3271C28.8783 26.5477 28.8585 27.5417 28.8735 29.3524C28.8955 32.0056 28.8988 32.0561 29.075 32.4918C29.5124 33.5734 31.2621 34.6273 32.2021 34.3752C32.8797 34.1936 33.5678 33.1684 33.5699 32.3374C33.5709 31.9357 33.5226 31.7861 33.1357 30.9921C32.8892 30.4864 32.6857 29.9611 32.6665 29.7811C32.6184 29.3275 32.9306 28.332 33.4962 27.1359C34.0237 26.0203 34.2184 25.3521 34.3788 24.1068C34.6451 22.0401 34.5886 18.377 34.2767 17.4814C34.1224 17.0386 33.8444 16.6448 33.6859 16.6448C33.6431 16.6448 33.538 16.7146 33.4523 16.8Z"/>
</mask>
<path d="M26.8301 28.7244L26.3302 28.7363L26.8301 28.7244ZM26.486 37.7651C27.1581 34.5113 27.4052 31.8661 27.3299 28.7124L26.3302 28.7363C26.4036 31.81 26.1643 34.3793 25.5067 37.5628L26.486 37.7651ZM27.3299 28.7124C27.2312 24.5804 26.5935 20.8575 25.3117 16.9328L24.3611 17.2433C25.6126 21.0752 26.2338 24.7015 26.3302 28.7363L27.3299 28.7124ZM33.4523 16.8L34.1578 17.5087L33.4523 16.8ZM32.7566 18.6308L31.787 18.3859L31.787 18.3859L32.7566 18.6308ZM29.9129 24.5747L29.1364 23.9445L29.1364 23.9445L29.9129 24.5747ZM28.934 26.3271L29.9036 26.5718L29.9037 26.5714L28.934 26.3271ZM28.8735 29.3524L27.8735 29.3606L27.8735 29.3607L28.8735 29.3524ZM29.075 32.4918L28.1479 32.8667L28.1479 32.8667L29.075 32.4918ZM32.2021 34.3752L32.461 35.3411L32.461 35.3411L32.2021 34.3752ZM33.5699 32.3374L32.5699 32.3348V32.3349L33.5699 32.3374ZM33.1357 30.9921L34.0346 30.554L34.0346 30.554L33.1357 30.9921ZM32.6665 29.7811L31.6721 29.8867L31.6721 29.8869L32.6665 29.7811ZM33.4962 27.1359L34.4002 27.5634L34.4002 27.5634L33.4962 27.1359ZM34.3788 24.1068L33.387 23.979L33.387 23.979L34.3788 24.1068ZM34.2767 17.4814L33.3323 17.8103L33.3323 17.8103L34.2767 17.4814ZM32.7467 16.0913C32.4851 16.3518 32.3219 16.6672 32.1904 17.0134C32.0606 17.3547 31.9345 17.8019 31.787 18.3859L33.7261 18.8757C33.872 18.2979 33.9747 17.9482 34.0599 17.7239C34.1433 17.5044 34.1813 17.4853 34.1578 17.5087L32.7467 16.0913ZM31.787 18.3859C31.1264 21.0018 30.5325 22.2245 29.1364 23.9445L30.6893 25.2049C32.2989 23.2218 33.0071 21.7228 33.7261 18.8756L31.787 18.3859ZM29.1364 23.9445C28.5367 24.6835 28.1544 25.3281 27.9643 26.0828L29.9037 26.5714C29.9957 26.2063 30.1875 25.8232 30.6893 25.2048L29.1364 23.9445ZM27.9643 26.0825C27.9246 26.24 27.9098 26.4317 27.9008 26.5764C27.8902 26.7488 27.8826 26.966 27.8774 27.2235C27.8671 27.74 27.866 28.4521 27.8735 29.3606L29.8734 29.3441C29.866 28.442 29.8673 27.7518 29.877 27.2635C29.8819 27.0186 29.8888 26.8327 29.897 26.7001C29.9069 26.5399 29.9155 26.5246 29.9036 26.5718L27.9643 26.0825ZM27.8735 29.3607C27.8844 30.6692 27.8906 31.3833 27.9185 31.8177C27.933 32.0442 27.9555 32.2364 27.9991 32.4208C28.0437 32.6091 28.103 32.7557 28.1479 32.8667L30.002 32.1169C29.9588 32.01 29.9517 31.9869 29.9454 31.9603C29.9382 31.9298 29.9254 31.8619 29.9144 31.6896C29.8911 31.3266 29.8846 30.6888 29.8734 29.344L27.8735 29.3607ZM28.1479 32.8667C28.4788 33.6849 29.2248 34.3631 29.9341 34.7903C30.3045 35.0134 30.712 35.1974 31.1224 35.306C31.5204 35.4114 31.9964 35.4657 32.461 35.3411L31.9431 33.4094C31.9456 33.4087 31.9222 33.4151 31.8648 33.4122C31.8081 33.4095 31.731 33.3983 31.6344 33.3727C31.4386 33.3209 31.2052 33.2211 30.966 33.077C30.456 32.7699 30.1086 32.3803 30.002 32.1169L28.1479 32.8667ZM32.461 35.3411C33.1308 35.1616 33.6473 34.6373 33.9696 34.1571C34.3043 33.6585 34.5682 33.0042 34.5699 32.3399L32.5699 32.3349C32.5695 32.5016 32.4883 32.7754 32.309 33.0425C32.2249 33.1678 32.1358 33.266 32.0571 33.3322C31.9745 33.4018 31.9326 33.4122 31.9431 33.4094L32.461 35.3411ZM34.5699 32.34C34.5706 32.0778 34.5537 31.8262 34.4499 31.5047C34.3639 31.2382 34.2213 30.937 34.0346 30.554L32.2368 31.4302C32.437 31.8412 32.512 32.0118 32.5466 32.119C32.5635 32.1712 32.5703 32.1952 32.5699 32.3348L34.5699 32.34ZM34.0346 30.554C33.9225 30.324 33.8214 30.0919 33.7483 29.9033C33.7117 29.8086 33.6851 29.7327 33.6682 29.6784C33.6463 29.6077 33.6549 29.6184 33.6609 29.6753L31.6721 29.8869C31.6979 30.1289 31.8057 30.4252 31.8834 30.6257C31.9784 30.8711 32.1024 31.1546 32.2368 31.4303L34.0346 30.554ZM33.6609 29.6755C33.6631 29.6954 33.6571 29.6528 33.6808 29.5201C33.7026 29.3977 33.7426 29.2362 33.8054 29.0362C33.9308 28.6364 34.1311 28.1324 34.4002 27.5634L32.5922 26.7084C32.2956 27.3355 32.0571 27.9273 31.897 28.4376C31.7506 28.9045 31.6245 29.4385 31.6721 29.8867L33.6609 29.6755ZM34.4002 27.5634C34.9733 26.3514 35.1971 25.5819 35.3706 24.2346L33.387 23.979C33.2397 25.1223 33.0741 25.6892 32.5922 26.7084L34.4002 27.5634ZM35.3706 24.2346C35.5121 23.1367 35.5647 21.6524 35.5444 20.3395C35.5343 19.6796 35.5055 19.0474 35.4576 18.5145C35.4127 18.0137 35.3439 17.5053 35.221 17.1525L33.3323 17.8103C33.3654 17.9054 33.4206 18.1906 33.4656 18.6932C33.5078 19.1635 33.535 19.7442 33.5447 20.3704C33.5641 21.6296 33.5119 23.0102 33.387 23.979L35.3706 24.2346ZM35.221 17.1526C35.116 16.851 34.9669 16.557 34.7998 16.3202C34.7177 16.204 34.6102 16.0714 34.477 15.9564C34.3815 15.874 34.0995 15.6448 33.6859 15.6448V17.6448C33.5023 17.6448 33.3676 17.5894 33.3002 17.5555C33.2298 17.5199 33.1863 17.4843 33.1698 17.47C33.1381 17.4427 33.1395 17.4363 33.166 17.4738C33.216 17.5447 33.2831 17.669 33.3323 17.8103L35.221 17.1526ZM33.6859 15.6448C33.453 15.6448 33.277 15.725 33.2272 15.7478C33.1482 15.7839 33.0814 15.8245 33.0319 15.8574C32.9315 15.9241 32.8332 16.0052 32.7467 16.0913L34.1578 17.5087C34.1571 17.5094 34.1542 17.5129 34.1385 17.5233C34.1313 17.5281 34.1042 17.5459 34.0597 17.5663C34.037 17.5767 33.9981 17.5931 33.9464 17.6082C33.8999 17.6217 33.8072 17.6448 33.6859 17.6448V15.6448Z" fill="#E70000" mask="url(#path-5-inside-2_1_2165)"/>
<mask id="path-7-inside-3_1_2165" fill="white">
<path fill-rule="evenodd" clip-rule="evenodd" d="M13.0952 0.119118C13.0952 0.187747 13.2307 0.533177 13.3962 0.886675C14.3338 2.88894 14.7655 4.64915 14.9296 7.13832C15.0133 8.40782 14.9395 9.97912 14.7277 11.4438C14.5971 12.3462 14.6034 12.5401 14.7609 12.4802C14.8099 12.4616 15.2206 11.9541 15.6735 11.3525C16.7659 9.90146 17.5026 9.07671 17.7904 8.98268C18.1152 8.87655 18.3826 8.97317 18.6992 9.31113C19.0007 9.63284 20.3698 11.322 21.0979 12.2703C21.6279 12.9606 21.7471 13.0665 21.8638 12.951C22.0734 12.7435 21.2893 9.86853 20.563 8.18165C19.2186 5.05935 16.9893 2.45821 13.8368 0.333432C13.298 -0.0296973 13.0952 -0.0883327 13.0952 0.119118Z"/>
</mask>
<path d="M17.6116 11.6688L17.8755 12.0935L17.8755 12.0934L17.6116 11.6688ZM18.4998 11.717L18.2048 12.1207L18.2048 12.1207L18.4998 11.717ZM13.3974 0.886675L13.8503 0.67464L13.8502 0.674618L13.3974 0.886675ZM14.9308 7.13832L14.4319 7.17119L14.4319 7.17121L14.9308 7.13832ZM14.7289 11.4438L15.2238 11.5154L15.2238 11.5154L14.7289 11.4438ZM14.7621 12.4802L14.5848 12.0127L14.5844 12.0129L14.7621 12.4802ZM18.7005 9.31113L18.3356 9.65298L18.3356 9.65299L18.7005 9.31113ZM21.0992 12.2703L21.4958 11.9658L21.4958 11.9658L21.0992 12.2703ZM21.8651 12.951L22.2168 13.3063H22.2168L21.8651 12.951ZM17.3477 11.2441C17.2465 11.3069 17.1508 11.3993 17.0739 11.4796C16.9892 11.5682 16.8949 11.6772 16.7944 11.8004C16.593 12.0472 16.3515 12.3695 16.0886 12.7395C15.5622 13.4804 14.9368 14.4313 14.3537 15.3929L15.2088 15.9114C15.7805 14.9685 16.3926 14.0381 16.9038 13.3187C17.1597 12.9585 17.3871 12.6558 17.5692 12.4326C17.6605 12.3208 17.7366 12.2335 17.7966 12.1708C17.8645 12.0998 17.8878 12.0858 17.8755 12.0935L17.3477 11.2441ZM21.7125 15.1562C21.2152 14.4191 20.5734 13.5282 20.0242 12.7984C19.7497 12.4335 19.4959 12.1058 19.2934 11.8559C19.1924 11.7313 19.1015 11.6228 19.0255 11.5374C18.9615 11.4655 18.876 11.3726 18.7948 11.3133L18.2048 12.1207C18.1866 12.1074 18.205 12.1196 18.2785 12.2022C18.34 12.2714 18.4202 12.3668 18.5166 12.4856C18.7087 12.7226 18.9545 13.0399 19.2252 13.3996C19.7664 14.119 20.3979 14.9956 20.8835 15.7154L21.7125 15.1562ZM18.7949 11.3133C18.5802 11.1564 18.3193 11.0844 18.0829 11.0716C17.8483 11.0589 17.5773 11.1014 17.3476 11.2441L17.8755 12.0934C17.8865 12.0866 17.9394 12.0653 18.0287 12.0701C18.1162 12.0749 18.179 12.1018 18.2048 12.1207L18.7949 11.3133ZM12.5964 0.119118C12.5964 0.190376 12.611 0.251654 12.6165 0.274485C12.6245 0.307617 12.6344 0.340933 12.6442 0.371277C12.6639 0.432582 12.6901 0.503894 12.7194 0.578604C12.7784 0.729164 12.858 0.913815 12.9446 1.09873L13.8502 0.674618C13.7713 0.506037 13.7004 0.341224 13.6503 0.213537C13.6251 0.149124 13.6071 0.0991172 13.5962 0.0653051C13.5936 0.0572471 13.5917 0.0509795 13.5904 0.046362C13.589 0.041607 13.5886 0.039675 13.5887 0.040123C13.5887 0.0404302 13.5891 0.0418031 13.5895 0.0441086C13.59 0.0463591 13.5908 0.0501981 13.5916 0.0553667C13.5928 0.0628203 13.5964 0.0864258 13.5964 0.119118H12.5964ZM12.9446 1.09871C13.8527 3.03789 14.2714 4.73618 14.4319 7.17119L15.4297 7.10544C15.2621 4.56211 14.8174 2.74 13.8503 0.67464L12.9446 1.09871ZM14.4319 7.17121C14.5129 8.40073 14.4417 9.93665 14.2341 11.3722L15.2238 11.5154C15.4398 10.0216 15.516 8.41492 15.4297 7.10543L14.4319 7.17121ZM14.2341 11.3722C14.1708 11.8099 14.1311 12.1319 14.1378 12.3389C14.1396 12.3954 14.1451 12.4628 14.1615 12.5319C14.177 12.5971 14.2107 12.7016 14.2945 12.7981C14.3916 12.91 14.5247 12.9754 14.6659 12.9879C14.787 12.9987 14.8855 12.9682 14.9399 12.9476L14.5844 12.0129C14.5995 12.0071 14.6633 11.9838 14.7544 11.9918C14.8656 12.0017 14.9734 12.0547 15.0498 12.1428C15.1129 12.2155 15.1306 12.2845 15.1345 12.3012C15.1394 12.3216 15.1379 12.3272 15.1373 12.3068C15.134 12.2063 15.1565 11.9801 15.2238 11.5154L14.2341 11.3722ZM14.9395 12.9477C15.0299 12.9134 15.0914 12.8588 15.0973 12.8538C15.1187 12.8357 15.1373 12.8177 15.1507 12.8044C15.1783 12.7767 15.208 12.7441 15.237 12.7112C15.2961 12.644 15.3712 12.5539 15.4557 12.4495C15.6256 12.2395 15.8451 11.9575 16.0742 11.6532L15.2753 11.0518C15.0514 11.3491 14.8392 11.6216 14.6783 11.8205C14.5974 11.9205 14.5323 11.9983 14.4865 12.0504C14.4629 12.0771 14.449 12.0918 14.443 12.0978C14.4396 12.1013 14.4439 12.0967 14.4537 12.0884C14.4587 12.0842 14.4697 12.0751 14.4855 12.0643C14.4974 12.0562 14.5329 12.0324 14.5848 12.0127L14.9395 12.9477ZM17.947 9.45794C18.0195 9.43425 18.0518 9.44072 18.0792 9.4506C18.1222 9.46616 18.2043 9.51286 18.3356 9.65298L19.0654 8.96929C18.88 8.77144 18.6701 8.60085 18.4191 8.51013C18.1523 8.41374 17.8886 8.42498 17.6363 8.50741L17.947 9.45794ZM18.3356 9.65299C18.6179 9.95429 19.9731 11.6247 20.7026 12.5748L21.4958 11.9658C20.769 11.0192 19.3859 9.3114 19.0653 8.96927L18.3356 9.65299ZM20.7026 12.5748C20.9575 12.9069 21.151 13.1498 21.3049 13.2866C21.3766 13.3503 21.5154 13.4625 21.7089 13.4866C21.9549 13.5172 22.1284 13.3939 22.2168 13.3063L21.5133 12.5956C21.5434 12.5659 21.6582 12.4726 21.8325 12.4943C21.9542 12.5094 22.0082 12.5737 21.9692 12.5391C21.9429 12.5157 21.894 12.4649 21.8104 12.3643C21.7294 12.267 21.6274 12.1373 21.4958 11.9658L20.7026 12.5748ZM22.2168 13.3063C22.3455 13.1789 22.376 13.0235 22.3859 12.9656C22.3992 12.8875 22.4008 12.8089 22.3989 12.7419C22.3952 12.6057 22.3745 12.4431 22.3453 12.2715C22.286 11.9239 22.1804 11.4749 22.048 10.9895C21.7832 10.0187 21.3984 8.8548 21.0234 7.98392L20.105 8.37938C20.4563 9.19538 20.8268 10.3124 21.0832 11.2527C21.2114 11.7228 21.3079 12.1369 21.3595 12.4395C21.3856 12.5929 21.3975 12.7022 21.3993 12.7694C21.4003 12.8042 21.3979 12.8103 21.4001 12.7979C21.4012 12.791 21.4054 12.7686 21.4177 12.7378C21.4295 12.7085 21.4564 12.6519 21.5133 12.5956L22.2168 13.3063ZM14.1175 -0.0811761C13.8571 -0.256692 13.6092 -0.408747 13.404 -0.468033C13.3137 -0.494126 13.0822 -0.548341 12.8622 -0.404011C12.6193 -0.24457 12.5964 0.0137543 12.5964 0.119118H13.5964C13.5964 0.120757 13.599 0.308616 13.4109 0.432053C13.3255 0.488098 13.2433 0.499281 13.1963 0.499964C13.1728 0.500305 13.155 0.498174 13.1445 0.49647C13.1338 0.494745 13.1275 0.492964 13.1264 0.492648C13.1251 0.492284 13.1348 0.495098 13.1581 0.505804C13.1807 0.516158 13.2108 0.531477 13.2497 0.553346C13.3281 0.597438 13.4294 0.660997 13.5585 0.74804L14.1175 -0.0811761ZM13.3962 0.886675L14.3018 0.462604L14.3018 0.462562L13.3962 0.886675ZM14.9296 7.13832L13.9317 7.20407L13.9317 7.20409L14.9296 7.13832ZM14.7277 11.4438L15.7174 11.587L15.7174 11.5869L14.7277 11.4438ZM14.7609 12.4802L14.4061 11.5453L14.4055 11.5455L14.7609 12.4802ZM15.6735 11.3525L14.8746 10.751L14.8746 10.751L15.6735 11.3525ZM17.7904 8.98268L18.101 9.93323L18.1011 9.93321L17.7904 8.98268ZM18.6992 9.31113L17.9695 9.99482L17.9695 9.99485L18.6992 9.31113ZM21.0979 12.2703L21.8911 11.6613L21.8911 11.6613L21.0979 12.2703ZM21.8638 12.951L22.5673 13.6617L21.8638 12.951ZM20.563 8.18165L21.4815 7.78619L21.4815 7.78617L20.563 8.18165ZM13.8368 0.333432L13.2779 1.16265L13.2779 1.16267L13.8368 0.333432ZM12.0952 0.119118C12.0952 0.253056 12.1222 0.362708 12.1292 0.391667C12.1412 0.441226 12.1551 0.487354 12.1669 0.524263C12.191 0.599314 12.2213 0.681279 12.2526 0.761137C12.3162 0.923135 12.4002 1.1177 12.4906 1.31079L14.3018 0.462562C14.2267 0.302148 14.1602 0.147253 14.1146 0.0310039C14.0914 -0.0282608 14.0775 -0.0676151 14.071 -0.0876809C14.0676 -0.0983308 14.0696 -0.0932106 14.0735 -0.0770583C14.0755 -0.0687404 14.0798 -0.0501765 14.084 -0.024431C14.0874 -0.00313747 14.0952 0.0494441 14.0952 0.119118H12.0952ZM12.4906 1.31074C13.3691 3.18684 13.7748 4.82322 13.9317 7.20407L15.9274 7.07256C15.7562 4.47507 15.2985 2.59105 14.3018 0.462604L12.4906 1.31074ZM13.9317 7.20409C14.0102 8.39363 13.9414 9.89419 13.738 11.3007L15.7174 11.5869C15.9377 10.064 16.0164 8.42202 15.9274 7.07254L13.9317 7.20409ZM13.738 11.3006C13.6766 11.7248 13.6284 12.0946 13.6368 12.3549C13.6392 12.4295 13.6467 12.5334 13.6738 12.6473C13.6989 12.7535 13.7584 12.9446 13.9156 13.1258C14.0994 13.3376 14.3531 13.4622 14.6204 13.486C14.8476 13.5061 15.0272 13.4488 15.1164 13.4149L14.4055 11.5455C14.4552 11.5266 14.6002 11.4763 14.7974 11.4938C15.0348 11.5149 15.2631 11.6271 15.4262 11.8151C15.5628 11.9724 15.6061 12.1282 15.6198 12.1858C15.6281 12.2211 15.6319 12.2483 15.6336 12.2636C15.6354 12.2794 15.6357 12.2891 15.6358 12.2908C15.6358 12.2928 15.6354 12.2793 15.6375 12.2436C15.6396 12.2091 15.6435 12.1625 15.6501 12.1005C15.6634 11.9754 15.6853 11.8089 15.7174 11.587L13.738 11.3006ZM15.1157 13.4152C15.2933 13.3478 15.4118 13.2416 15.4178 13.2365C15.4549 13.2053 15.485 13.176 15.5033 13.1576C15.5417 13.1192 15.5794 13.0776 15.6111 13.0416C15.6768 12.9669 15.7568 12.8706 15.8431 12.764C16.0176 12.5485 16.2408 12.2616 16.4724 11.9539L14.8746 10.751C14.6533 11.045 14.4448 11.3127 14.2884 11.5059C14.2093 11.6037 14.1491 11.6755 14.11 11.7199C14.0892 11.7436 14.0832 11.7494 14.0879 11.7446C14.0895 11.743 14.1052 11.7271 14.1307 11.7057C14.1435 11.6949 14.1682 11.6747 14.202 11.6516C14.228 11.6339 14.3009 11.5852 14.4061 11.5453L15.1157 13.4152ZM16.4724 11.9539C17.0113 11.2381 17.4495 10.6943 17.7795 10.3249C17.9454 10.1391 18.0709 10.0123 18.1584 9.93402C18.2804 9.82493 18.2455 9.88602 18.101 9.93323L17.4799 8.03213C17.1915 8.12636 16.9565 8.3258 16.8253 8.44314C16.6596 8.59126 16.4786 8.779 16.2879 8.99251C15.9044 9.4218 15.4281 10.0158 14.8746 10.751L16.4724 11.9539ZM18.1011 9.93321C18.1011 9.93318 18.0948 9.93526 18.0828 9.93737C18.0706 9.93952 18.0536 9.94151 18.0327 9.94167C17.9874 9.94202 17.9436 9.93368 17.908 9.92084C17.8754 9.90905 17.8646 9.89884 17.8768 9.90785C17.8901 9.91767 17.9207 9.94277 17.9695 9.99482L19.429 8.62744C19.2166 8.40073 18.9428 8.1682 18.5878 8.0399C18.2014 7.90025 17.8219 7.92034 17.4798 8.03215L18.1011 9.93321ZM17.9695 9.99485C18.2327 10.2757 19.5739 11.9274 20.3048 12.8793L21.8911 11.6613C21.1657 10.7165 19.7687 8.98995 19.429 8.62742L17.9695 9.99485ZM20.3047 12.8792C20.5497 13.1983 20.7744 13.485 20.9716 13.6603C21.0596 13.7385 21.2947 13.939 21.6458 13.9828C22.1021 14.0396 22.4196 13.8079 22.5673 13.6617L21.1603 12.2403C21.199 12.202 21.2834 12.1265 21.416 12.0681C21.5623 12.0036 21.7277 11.9775 21.8931 11.9981C22.0447 12.017 22.1535 12.0698 22.2099 12.1023C22.2658 12.1346 22.2971 12.1626 22.3001 12.1653C22.3028 12.1677 22.2733 12.1404 22.1935 12.0445C22.119 11.955 22.0219 11.8317 21.8911 11.6613L20.3047 12.8792ZM22.5673 13.6617C22.8117 13.4198 22.8635 13.1323 22.8776 13.0495C22.8986 12.926 22.8998 12.8112 22.8975 12.7281C22.8928 12.5574 22.8677 12.3682 22.8369 12.1875C22.7738 11.8173 22.6636 11.351 22.5291 10.858C22.2601 9.87181 21.8682 8.68451 21.4815 7.78619L19.6445 8.57711C19.984 9.36567 20.3473 10.4593 20.5996 11.3842C20.7257 11.8467 20.8176 12.2435 20.8653 12.5234C20.8899 12.6678 20.8974 12.7504 20.8983 12.7832C20.8988 12.8019 20.8961 12.7717 20.9059 12.714C20.9088 12.6969 20.9422 12.4562 21.1603 12.2403L22.5673 13.6617ZM21.4815 7.78617C20.0525 4.46747 17.6878 1.72301 14.3957 -0.495806L13.2779 1.16267C16.2909 3.1934 18.3847 5.65124 19.6445 8.57713L21.4815 7.78617ZM14.3957 -0.495784C14.1443 -0.665252 13.8338 -0.86392 13.5416 -0.948373C13.4201 -0.9835 12.9992 -1.0927 12.5867 -0.822042C12.1282 -0.521163 12.0952 -0.0397469 12.0952 0.119118H14.0952C14.0952 0.174258 14.0876 0.58521 13.684 0.850085C13.3264 1.08474 12.9898 0.973996 12.9863 0.972988C12.9346 0.958031 12.9314 0.948635 13.0033 0.989114C13.0653 1.02398 13.1543 1.07934 13.2779 1.16265L14.3957 -0.495784Z" fill="#E70000" mask="url(#path-7-inside-3_1_2165)"/>
<path d="M0.000488281 21.292L7.46925 21.4888L7.39399 32.2609L7.60467 37.6372L0.651709 37.9097L0.000488281 21.292Z" fill="#EBEBEB"/>
<path d="M16.5015 14C16.5015 14 16.4989 14 17.4989 14C18.4989 14 19.0006 14.0002 18.5006 14.0002C18.0006 14.0002 21.0358 16.1011 21.0358 16.1011L21.0715 17.0133L14.1186 17.2858L16.5015 14Z" fill="#EBEBEB"/>
<path d="M27.2812 33.2608L27.7704 31.7935L29.7269 37.1739H27.7704L27.2812 33.2608Z" fill="#EBEBEB"/>
<mask id="path-12-inside-4_1_2165" fill="white">
<path fill-rule="evenodd" clip-rule="evenodd" d="M1.4843 16.7895C1.72416 17.0323 1.8895 17.4745 2.18505 18.6641C2.8799 21.4609 3.53566 22.8543 5.04937 24.7501C5.60414 25.445 5.89326 25.9711 6.03536 26.5445C6.09142 26.7703 6.11137 27.7881 6.09627 29.642C6.07407 32.3587 6.07078 32.4104 5.89333 32.8565C5.45277 33.964 3.69039 35.043 2.74356 34.785C2.06105 34.599 1.36791 33.5493 1.36582 32.6984C1.36478 32.2871 1.41344 32.1339 1.80317 31.321C2.05148 30.8032 2.25644 30.2653 2.27572 30.081C2.32423 29.6165 2.00977 28.5972 1.44005 27.3726C0.90867 26.2303 0.712607 25.5461 0.551003 24.271C0.28281 22.1549 0.339768 18.4042 0.653931 17.4872C0.809256 17.0338 1.08934 16.6306 1.24892 16.6306C1.29205 16.6306 1.39789 16.7021 1.4843 16.7895Z"/>
</mask>
<path d="M8.15452 28.999L8.65438 29.0107V29.0107L8.15452 28.999ZM8.50431 38.2519C7.82754 34.9216 7.57883 32.2148 7.65465 28.9873L8.65438 29.0107C8.58041 32.1596 8.82159 34.7917 9.48428 38.0528L8.50431 38.2519ZM7.65465 28.9873C7.754 24.7584 8.39606 20.9484 9.68656 16.9316L10.6386 17.2374C9.37756 21.1627 8.75147 24.8775 8.65438 29.0107L7.65465 28.9873ZM1.4843 16.7895L0.772973 17.4924L1.4843 16.7895ZM2.18505 18.6641L3.15555 18.423L3.15555 18.423L2.18505 18.6641ZM5.04937 24.7501L5.83083 24.1261L5.83086 24.1262L5.04937 24.7501ZM6.03536 26.5445L5.0648 26.7853L5.06472 26.785L6.03536 26.5445ZM6.09627 29.642L7.09624 29.6501L7.09624 29.6502L6.09627 29.642ZM5.89333 32.8565L6.82252 33.2261L6.82251 33.2261L5.89333 32.8565ZM2.74356 34.785L2.48063 35.7498L2.48061 35.7498L2.74356 34.785ZM1.36582 32.6984L2.36582 32.6958V32.6959L1.36582 32.6984ZM1.80317 31.321L0.901444 30.8887L0.901484 30.8886L1.80317 31.321ZM2.27572 30.081L3.27031 30.1849L3.27029 30.1851L2.27572 30.081ZM1.44005 27.3726L0.533359 27.7944L0.533352 27.7944L1.44005 27.3726ZM0.551003 24.271L1.54307 24.1453L1.54307 24.1453L0.551003 24.271ZM0.653931 17.4872L1.59997 17.8113L1.59995 17.8114L0.653931 17.4872ZM2.19563 16.0867C2.45643 16.3506 2.619 16.6699 2.75048 17.0216C2.88038 17.3691 3.00702 17.8252 3.15555 18.423L1.21456 18.9052C1.06754 18.3135 0.963735 17.9537 0.877107 17.7219C0.792068 17.4945 0.752038 17.4712 0.772973 17.4924L2.19563 16.0867ZM3.15555 18.423C3.82213 21.106 4.42226 22.362 5.83083 24.1261L4.26791 25.3741C2.64907 23.3466 1.93768 21.8159 1.21456 18.9052L3.15555 18.423ZM5.83086 24.1262C6.43423 24.882 6.8162 25.5381 7.00599 26.3039L5.06472 26.785C4.97033 26.4041 4.77405 26.008 4.26787 25.374L5.83086 24.1262ZM7.00591 26.3036C7.04496 26.4609 7.05975 26.6537 7.06879 26.8022C7.07951 26.9779 7.08713 27.1996 7.09231 27.4631C7.10269 27.9913 7.10382 28.7201 7.09624 29.6501L5.09631 29.6339C5.10383 28.71 5.10253 28.0029 5.09269 27.5024C5.08776 27.2514 5.08083 27.0604 5.0725 26.9239C5.06251 26.76 5.05378 26.7409 5.0648 26.7853L7.00591 26.3036ZM7.09624 29.6502C7.08529 30.9907 7.07903 31.7203 7.05103 32.1638C7.03646 32.3946 7.01401 32.5889 6.97075 32.7748C6.92656 32.9646 6.8677 33.1125 6.82252 33.2261L4.96415 32.4869C5.00769 32.3774 5.01578 32.3516 5.02282 32.3214C5.03077 32.2872 5.0438 32.2152 5.05501 32.0377C5.07857 31.6646 5.08506 31.01 5.09631 29.6338L7.09624 29.6502ZM6.82251 33.2261C6.49258 34.0555 5.74568 34.7477 5.03046 35.1856C4.65768 35.4139 4.24708 35.6024 3.83316 35.7139C3.4317 35.8219 2.95048 35.8778 2.48063 35.7498L3.0065 33.8202C3.00315 33.8193 3.02579 33.8257 3.08281 33.8229C3.13915 33.8201 3.21624 33.8087 3.31324 33.7826C3.50983 33.7297 3.74489 33.6277 3.98613 33.48C4.49895 33.166 4.85353 32.765 4.96415 32.4869L6.82251 33.2261ZM2.48061 35.7498C1.80506 35.5657 1.28697 35.0296 0.965037 34.542C0.62967 34.0341 0.367473 33.3709 0.365825 32.7008L2.36582 32.6959C2.36626 32.8768 2.45168 33.1638 2.63403 33.44C2.71989 33.57 2.81082 33.6718 2.89108 33.7406C2.97539 33.8128 3.01794 33.8233 3.00652 33.8202L2.48061 35.7498ZM0.365826 32.7009C0.365149 32.4351 0.381898 32.1819 0.484849 31.8577C0.570627 31.5875 0.713192 31.2813 0.901444 30.8887L2.70489 31.7533C2.50341 32.1736 2.42678 32.3504 2.39106 32.4629C2.37251 32.5214 2.36545 32.5504 2.36582 32.6958L0.365826 32.7009ZM0.901484 30.8886C1.01474 30.6524 1.1169 30.414 1.19088 30.2198C1.22799 30.1224 1.25504 30.044 1.27234 29.9874C1.29457 29.9146 1.28683 29.9226 1.28115 29.9769L3.27029 30.1851C3.24497 30.427 3.13833 30.7259 3.05978 30.932C2.96438 31.1823 2.83991 31.4718 2.70485 31.7534L0.901484 30.8886ZM1.28113 29.9771C1.27956 29.9921 1.28488 29.9444 1.26075 29.8068C1.23843 29.6794 1.19766 29.5124 1.13417 29.3067C1.00726 28.8954 0.804781 28.3778 0.533359 27.7944L2.34674 26.9508C2.64504 27.592 2.88465 28.1964 3.04527 28.717C3.1927 29.1949 3.31731 29.7348 3.27031 30.1849L1.28113 29.9771ZM0.533352 27.7944C-0.0425072 26.5565 -0.266738 25.7722 -0.441061 24.3967L1.54307 24.1453C1.69195 25.32 1.85985 25.9041 2.34674 26.9508L0.533352 27.7944ZM-0.441061 24.3968C-0.58321 23.2752 -0.636188 21.7575 -0.615801 20.4143C-0.605556 19.7393 -0.576577 19.093 -0.528532 18.5486C-0.483292 18.0359 -0.41421 17.5196 -0.29209 17.1631L1.59995 17.8114C1.56499 17.9134 1.50914 18.2098 1.46373 18.7244C1.42111 19.2073 1.39371 19.8029 1.38397 20.4447C1.36438 21.735 1.41702 23.1508 1.54307 24.1453L-0.441061 24.3968ZM-0.292103 17.1632C-0.187317 16.8573 -0.0384359 16.5588 0.128516 16.3184C0.210429 16.2005 0.31774 16.066 0.450723 15.9492C0.544814 15.8666 0.829248 15.6306 1.24892 15.6306V17.6306C1.43589 17.6306 1.5725 17.5734 1.64009 17.5387C1.71083 17.5025 1.7542 17.4663 1.77022 17.4522C1.80095 17.4252 1.79861 17.4198 1.77114 17.4594C1.71933 17.534 1.6505 17.6638 1.59997 17.8113L-0.292103 17.1632ZM1.24892 15.6306C1.48553 15.6306 1.66387 15.7133 1.71365 15.7365C1.7932 15.7735 1.86031 15.815 1.91002 15.8485C2.01074 15.9166 2.10918 15.9992 2.19563 16.0867L0.772973 17.4924C0.773015 17.4925 0.775332 17.4956 0.790747 17.506C0.797803 17.5108 0.82496 17.5289 0.869838 17.5498C0.8927 17.5604 0.932005 17.5773 0.984403 17.5928C1.03146 17.6067 1.12562 17.6306 1.24892 17.6306V15.6306Z" fill="#E70000" mask="url(#path-12-inside-4_1_2165)"/>
</svg>
