<svg width="49" height="49" viewBox="0 0 49 49" fill="none" xmlns="http://www.w3.org/2000/svg">
<path d="M32.9219 21.8323C32.9296 22.6718 33.615 23.3494 34.4527 23.3494C34.4575 23.3494 34.4623 23.3494 34.467 23.3493C34.876 23.3456 35.2589 23.1829 35.5455 22.891C35.8322 22.5992 35.9879 22.2132 35.9841 21.8043C35.9804 21.3954 35.8177 21.0123 35.5258 20.7258C35.234 20.4392 34.847 20.2818 34.4391 20.2872C33.5949 20.2949 32.9143 20.988 32.9219 21.8323Z" fill="#E70000"/>
<path d="M24.4281 26.4352C19.7848 26.4774 16.0427 30.4215 16.0863 35.2272C16.0971 36.4159 16.4684 37.3436 17.1899 37.9843C17.3559 38.1318 17.5345 38.2591 17.7234 38.3688C18.6391 41.5761 21.5876 44.0429 24.5399 44.0429C24.5558 44.0429 24.5721 44.0428 24.5881 44.0427C26.0095 44.0298 27.499 43.3998 28.7818 42.2687C30.001 41.1937 30.9038 39.7739 31.3421 38.2526C31.5316 38.1388 31.7106 38.0078 31.8759 37.8557C32.585 37.2023 32.939 36.2664 32.9282 35.0742C32.8847 30.2683 29.0759 26.391 24.4281 26.4352ZM24.5742 42.5116C24.564 42.5117 24.5537 42.5117 24.5435 42.5117C22.8037 42.5117 20.6136 41.1744 19.562 38.9301C19.8984 38.9694 20.2436 38.9863 20.592 38.9862C21.4373 38.9862 22.2987 38.8916 23.0834 38.8054C23.6361 38.7446 24.1581 38.6873 24.5395 38.6837C24.9318 38.6809 25.4642 38.7285 26.0268 38.7797C27.1149 38.8788 28.3504 38.9906 29.4806 38.8461C28.4854 40.9088 26.4485 42.4945 24.5742 42.5116ZM30.8384 36.7296C29.8996 37.5947 27.7415 37.3983 26.1654 37.255C25.8629 37.2275 25.5688 37.2006 25.2912 37.1812L25.284 36.3802C25.2801 35.9598 24.9382 35.6216 24.5186 35.6216C24.5163 35.6216 24.5139 35.6216 24.5115 35.6216C24.0887 35.6255 23.7491 35.9713 23.7529 36.3941L23.7602 37.1962C23.4923 37.2202 23.2082 37.2513 22.9161 37.2834C21.3353 37.4571 19.1703 37.6951 18.2065 36.8393C17.8168 36.4932 17.6242 35.9614 17.6173 35.2132C17.5813 31.2518 20.6428 28.0008 24.4418 27.9662C24.4622 27.966 24.4824 27.9659 24.5028 27.9659C28.2742 27.9659 31.3612 31.1478 31.397 35.0879C31.404 35.8398 31.2213 36.3768 30.8384 36.7296Z" fill="#E70000"/>
<path d="M21.3454 31.7469C20.9364 31.7507 20.5534 31.9133 20.2668 32.2052C19.9802 32.4971 19.8244 32.883 19.8282 33.2918C19.8319 33.7008 19.9946 34.0838 20.2865 34.3704C20.5749 34.6536 20.9552 34.8091 21.3588 34.8091C21.3635 34.8091 21.3684 34.8091 21.3731 34.809C21.7821 34.8053 22.1651 34.6426 22.4517 34.3507C22.7383 34.0588 22.8941 33.6729 22.8903 33.264C22.8866 32.8551 22.7239 32.472 22.432 32.1855C22.1402 31.8989 21.7535 31.7424 21.3454 31.7469Z" fill="#E70000"/>
<path d="M27.4977 31.7469C27.0887 31.7507 26.7056 31.9133 26.4191 32.2052C26.1326 32.497 25.9768 32.8829 25.9805 33.2919C25.9882 34.1315 26.6736 34.8091 27.5113 34.8091C27.5161 34.8091 27.5209 34.8091 27.5256 34.809C27.9346 34.8053 28.3175 34.6426 28.6042 34.3507C28.8907 34.0589 29.0465 33.6729 29.0427 33.2641C29.039 32.8551 28.8763 32.4721 28.5844 32.1855C28.2926 31.8989 27.9081 31.7424 27.4977 31.7469Z" fill="#E70000"/>
<path d="M14.5606 20.2871C14.1522 20.2854 13.7658 20.4392 13.474 20.7257C13.1822 21.0123 13.0194 21.3953 13.0157 21.8043C13.012 22.2132 13.1678 22.5992 13.4543 22.8909C13.7409 23.1827 14.1239 23.3455 14.5328 23.3492C14.5376 23.3492 14.5422 23.3493 14.547 23.3493C15.3848 23.3493 16.0702 22.6716 16.0779 21.832C16.0854 20.9879 15.4048 20.2948 14.5606 20.2871Z" fill="#E70000"/>
<path d="M48.938 2.38075C48.8013 2.05816 48.4627 1.86906 48.1165 1.92237C43.829 2.58057 40.9794 3.53179 38.9177 4.56818C38.9081 4.57267 38.8982 4.57631 38.8886 4.58129C38.8425 4.60483 38.7979 4.62866 38.7526 4.65239C36.7895 5.66418 35.5542 6.7511 34.4503 7.72261C33.3274 8.71086 32.3509 9.57041 30.828 10.1288C29.4644 9.77682 27.1349 9.57605 24.503 9.58524C21.8647 9.575 19.5356 9.77682 18.172 10.1288C16.6491 9.57041 15.6725 8.71086 14.5496 7.72261C13.4459 6.7511 12.2105 5.66418 10.2476 4.65248C10.2023 4.62865 10.1575 4.60483 10.1114 4.58119C10.1018 4.57631 10.0919 4.57258 10.0822 4.56808C8.02048 3.53169 5.17084 2.58047 0.883463 1.92227C0.537426 1.86897 0.198661 2.05806 0.062007 2.38066C-0.0383784 2.61741 -0.0686183 2.68889 0.382302 4.43535C0.603743 5.29288 0.976001 6.62181 1.49171 8.08243C2.81662 11.8344 4.32786 14.3742 5.9835 15.6311C7.70258 16.9362 9.56627 16.8653 11.3731 15.4255C11.9522 14.964 12.2397 14.9002 12.3204 14.892C12.3313 14.9081 12.3472 14.9356 12.3653 14.9789C12.3047 16.3999 11.4534 18.2436 10.4722 20.3687C8.90213 23.769 6.94821 28.0007 6.90132 33.1651C6.85912 37.8046 8.82692 41.5465 12.5918 43.9863C15.6128 45.944 19.7941 47.045 24.3652 47.0866C24.3675 47.0866 24.3698 47.0866 24.3722 47.0866H24.5981C29.1725 47.045 33.3599 45.9441 36.389 43.9869C40.1664 41.546 42.1408 37.8039 42.0986 33.1652C42.0517 28.0008 40.0978 23.769 38.5278 20.3689C37.5466 18.2437 36.6953 16.4001 36.6347 14.9791C36.6527 14.9358 36.6686 14.9083 36.6796 14.8922C36.7603 14.9004 37.0478 14.9642 37.6269 15.4257C39.4336 16.8654 41.2973 16.9366 43.0166 15.6313C44.6722 14.3743 46.1835 11.8346 47.5084 8.08262C48.0242 6.62201 48.3963 5.29317 48.6178 4.43554C49.0686 2.68899 49.0384 2.6175 48.938 2.38075ZM45.7283 8.48598C44.356 12.059 42.8279 14.2643 41.3092 14.8635C40.4403 15.2063 39.5478 14.9986 38.5812 14.2281C37.6458 13.4828 36.8693 13.2205 36.2074 13.4273C35.8503 13.5388 35.374 13.8394 35.1329 14.6384C35.1106 14.7123 35.0996 14.7892 35.1004 14.8664C35.1164 16.6329 36.0532 18.6615 37.1378 21.0106C38.6463 24.2778 40.5237 28.3437 40.5677 33.1789C40.6054 37.3249 38.9199 40.5285 35.5581 42.7007C32.7695 44.5026 28.8723 45.5164 24.5912 45.5553H24.3758C20.0929 45.5159 16.2039 44.5024 13.4245 42.7012C10.0743 40.5302 8.39475 37.3264 8.43246 33.1788C8.47638 28.3436 10.3538 24.2776 11.8624 21.0105C12.9469 18.6614 13.8837 16.6328 13.8998 14.8663C13.9004 14.7891 13.8895 14.7123 13.8672 14.6383C13.6263 13.8392 13.1499 13.5386 12.7928 13.4272C12.1307 13.2206 11.3544 13.4827 10.419 14.228C9.45229 14.9984 8.56012 15.2062 7.691 14.8634C4.61868 13.6514 2.43288 6.42191 1.74693 3.61571C5.23486 4.22711 7.60057 5.03134 9.35344 5.90945C9.37305 5.9218 9.39315 5.93376 9.4142 5.94448C14.0989 8.34033 14.0208 11.3666 13.9789 12.9924C13.9759 13.1115 13.973 13.2223 13.9721 13.3236C13.9682 13.7464 14.3079 14.0922 14.7307 14.0961C14.7331 14.0961 14.7354 14.0961 14.7378 14.0961C15.1573 14.0961 15.4993 13.7579 15.5032 13.3375C15.504 13.2439 15.5067 13.1418 15.5095 13.0318C15.5261 12.3871 15.5509 11.4103 15.2626 10.2913C16.004 10.8257 16.8374 11.2986 17.9008 11.6563C18.0508 11.7067 18.2127 11.7095 18.3644 11.6641C19.5273 11.3162 21.8743 11.1076 24.5029 11.1165C27.1221 11.1065 29.4725 11.3161 30.6354 11.6641C30.7869 11.7095 30.9488 11.7068 31.099 11.6563C32.1624 11.2986 32.9957 10.8257 33.7372 10.2913C33.4489 11.4104 33.4738 12.3871 33.4903 13.0318C33.4931 13.1418 33.4958 13.2439 33.4966 13.3375C33.5005 13.758 33.8424 14.0961 34.262 14.0961C34.2643 14.0961 34.2668 14.0961 34.2691 14.0961C34.6919 14.0922 35.0315 13.7464 35.0277 13.3236C35.0268 13.2223 35.0239 13.1115 35.0209 12.9924C34.979 11.3666 34.9009 8.34033 39.5856 5.94448C39.606 5.93405 39.6253 5.92256 39.6443 5.9106C41.3961 5.03278 43.7598 4.22874 47.2439 3.61724C46.972 4.72282 46.4618 6.57598 45.7283 8.48598Z" fill="#E70000"/>
<path d="M25.3203 39.4424C25.318 39.4424 25.3156 39.4424 25.3132 39.4424L23.7821 39.4563C23.3593 39.4601 23.0196 39.8059 23.0235 40.2287C23.0273 40.6492 23.3692 40.9874 23.7888 40.9874C23.7911 40.9874 23.7935 40.9874 23.7959 40.9874L25.327 40.9735C25.7498 40.9697 26.0894 40.6239 26.0856 40.2011C26.0818 39.7806 25.7398 39.4424 25.3203 39.4424Z" fill="#E70000"/>
</svg>
