<svg width="49" height="47" viewBox="0 0 49 47" fill="none" xmlns="http://www.w3.org/2000/svg">
<path d="M32.9215 20.8323C32.9291 21.6718 33.6145 22.3494 34.4522 22.3494C34.457 22.3494 34.4618 22.3494 34.4665 22.3493C34.8755 22.3456 35.2584 22.1829 35.5451 21.891C35.8317 21.5992 35.9875 21.2132 35.9836 20.8043C35.9799 20.3954 35.8172 20.0123 35.5253 19.7258C35.2335 19.4392 34.8465 19.2818 34.4386 19.2872C33.5944 19.2949 32.9138 19.988 32.9215 20.8323Z" fill="#222222"/>
<path d="M24.4286 25.4352C19.7853 25.4774 16.0432 29.4215 16.0868 34.2272C16.0976 35.4159 16.4689 36.3436 17.1904 36.9843C17.3564 37.1318 17.535 37.2591 17.7239 37.3688C18.6396 40.5761 21.5881 43.0429 24.5404 43.0429C24.5563 43.0429 24.5726 43.0428 24.5886 43.0427C26.01 43.0298 27.4994 42.3998 28.7823 41.2687C30.0015 40.1937 30.9043 38.7739 31.3426 37.2526C31.5321 37.1388 31.7111 37.0078 31.8764 36.8557C32.5855 36.2023 32.9395 35.2664 32.9287 34.0742C32.8851 29.2683 29.0764 25.391 24.4286 25.4352ZM24.5747 41.5116C24.5644 41.5117 24.5542 41.5117 24.544 41.5117C22.8042 41.5117 20.6141 40.1744 19.5625 37.9301C19.8989 37.9694 20.2441 37.9863 20.5925 37.9862C21.4378 37.9862 22.2992 37.8916 23.0839 37.8054C23.6366 37.7446 24.1586 37.6873 24.5399 37.6837C24.9323 37.6809 25.4647 37.7285 26.0273 37.7797C27.1154 37.8788 28.3509 37.9906 29.4811 37.8461C28.4859 39.9088 26.449 41.4945 24.5747 41.5116ZM30.8389 35.7296C29.9001 36.5947 27.7419 36.3983 26.1659 36.255C25.8634 36.2275 25.5693 36.2006 25.2917 36.1812L25.2845 35.3802C25.2806 34.9598 24.9387 34.6216 24.5191 34.6216C24.5168 34.6216 24.5144 34.6216 24.512 34.6216C24.0892 34.6255 23.7496 34.9713 23.7534 35.3941L23.7607 36.1962C23.4927 36.2202 23.2087 36.2513 22.9166 36.2834C21.3357 36.4571 19.1708 36.6951 18.207 35.8393C17.8173 35.4932 17.6246 34.9614 17.6178 34.2132C17.5818 30.2518 20.6433 27.0008 24.4423 26.9662C24.4627 26.966 24.4829 26.9659 24.5033 26.9659C28.2747 26.9659 31.3617 30.1478 31.3974 34.0879C31.4045 34.8398 31.2217 35.3768 30.8389 35.7296Z" fill="#222222"/>
<path d="M21.3463 30.7469C20.9373 30.7507 20.5544 30.9133 20.2677 31.2052C19.9811 31.4971 19.8253 31.883 19.8292 32.2918C19.8329 32.7008 19.9956 33.0838 20.2875 33.3704C20.5759 33.6536 20.9562 33.8091 21.3597 33.8091C21.3645 33.8091 21.3694 33.8091 21.3741 33.809C21.7831 33.8053 22.1661 33.6426 22.4527 33.3507C22.7393 33.0588 22.8951 32.6729 22.8913 32.264C22.8875 31.8551 22.7248 31.472 22.433 31.1855C22.1412 30.8989 21.7545 30.7424 21.3463 30.7469Z" fill="#222222"/>
<path d="M27.4972 30.7469C27.0882 30.7507 26.7051 30.9133 26.4186 31.2052C26.1321 31.497 25.9763 31.8829 25.98 32.2919C25.9877 33.1315 26.6731 33.8091 27.5108 33.8091C27.5156 33.8091 27.5204 33.8091 27.5251 33.809C27.9341 33.8053 28.3171 33.6426 28.6037 33.3507C28.8902 33.0589 29.046 32.6729 29.0422 32.2641C29.0385 31.8551 28.8758 31.4721 28.584 31.1855C28.2921 30.8989 27.9076 30.7424 27.4972 30.7469Z" fill="#222222"/>
<path d="M14.5616 19.2871C14.1532 19.2854 13.7667 19.4392 13.475 19.7257C13.1832 20.0123 13.0204 20.3953 13.0167 20.8043C13.0129 21.2132 13.1687 21.5992 13.4552 21.8909C13.7419 22.1827 14.1248 22.3455 14.5337 22.3492C14.5385 22.3492 14.5432 22.3493 14.548 22.3493C15.3857 22.3493 16.0712 21.6716 16.0789 20.832C16.0864 19.9879 15.4058 19.2948 14.5616 19.2871Z" fill="#222222"/>
<path d="M48.938 1.38075C48.8013 1.05816 48.4627 0.869064 48.1165 0.922367C43.829 1.58057 40.9794 2.53179 38.9177 3.56818C38.9081 3.57267 38.8982 3.57631 38.8886 3.58129C38.8425 3.60483 38.7979 3.62866 38.7526 3.65239C36.7895 4.66418 35.5542 5.7511 34.4503 6.72261C33.3274 7.71086 32.3509 8.57041 30.828 9.12879C29.4644 8.77682 27.1349 8.57605 24.503 8.58524C21.8647 8.575 19.5356 8.77682 18.172 9.12879C16.6491 8.57041 15.6725 7.71086 14.5496 6.72261C13.4459 5.7511 12.2105 4.66418 10.2476 3.65248C10.2023 3.62865 10.1575 3.60483 10.1114 3.58119C10.1018 3.57631 10.0919 3.57258 10.0822 3.56808C8.02048 2.53169 5.17084 1.58047 0.883463 0.922271C0.537426 0.868969 0.198661 1.05806 0.062007 1.38066C-0.0383784 1.61741 -0.0686183 1.68889 0.382302 3.43535C0.603743 4.29288 0.976001 5.62181 1.49171 7.08243C2.81662 10.8344 4.32786 13.3742 5.9835 14.6311C7.70258 15.9362 9.56627 15.8653 11.3731 14.4255C11.9522 13.964 12.2397 13.9002 12.3204 13.892C12.3313 13.9081 12.3472 13.9356 12.3653 13.9789C12.3047 15.3999 11.4534 17.2436 10.4722 19.3687C8.90213 22.769 6.94821 27.0007 6.90132 32.1651C6.85912 36.8046 8.82692 40.5465 12.5918 42.9863C15.6128 44.944 19.7941 46.045 24.3652 46.0866C24.3675 46.0866 24.3698 46.0866 24.3722 46.0866H24.5981C29.1725 46.045 33.3599 44.9441 36.389 42.9869C40.1664 40.546 42.1408 36.8039 42.0986 32.1652C42.0517 27.0008 40.0978 22.769 38.5278 19.3689C37.5466 17.2437 36.6953 15.4001 36.6347 13.9791C36.6527 13.9358 36.6686 13.9083 36.6796 13.8922C36.7603 13.9004 37.0478 13.9642 37.6269 14.4257C39.4336 15.8654 41.2973 15.9366 43.0166 14.6313C44.6722 13.3743 46.1835 10.8346 47.5084 7.08262C48.0242 5.62201 48.3963 4.29317 48.6178 3.43554C49.0686 1.68899 49.0384 1.6175 48.938 1.38075ZM45.7283 7.48598C44.356 11.059 42.8279 13.2643 41.3092 13.8635C40.4403 14.2063 39.5478 13.9986 38.5812 13.2281C37.6458 12.4828 36.8693 12.2205 36.2074 12.4273C35.8503 12.5388 35.374 12.8394 35.1329 13.6384C35.1106 13.7123 35.0996 13.7892 35.1004 13.8664C35.1164 15.6329 36.0532 17.6615 37.1378 20.0106C38.6463 23.2778 40.5237 27.3437 40.5677 32.1789C40.6054 36.3249 38.9199 39.5285 35.5581 41.7007C32.7695 43.5026 28.8723 44.5164 24.5912 44.5553H24.3758C20.0929 44.5159 16.2039 43.5024 13.4245 41.7012C10.0743 39.5302 8.39475 36.3264 8.43246 32.1788C8.47638 27.3436 10.3538 23.2776 11.8624 20.0105C12.9469 17.6614 13.8837 15.6328 13.8998 13.8663C13.9004 13.7891 13.8895 13.7123 13.8672 13.6383C13.6263 12.8392 13.1499 12.5386 12.7928 12.4272C12.1307 12.2206 11.3544 12.4827 10.419 13.228C9.45229 13.9984 8.56012 14.2062 7.691 13.8634C4.61868 12.6514 2.43288 5.42191 1.74693 2.61571C5.23486 3.22711 7.60057 4.03134 9.35344 4.90945C9.37305 4.9218 9.39315 4.93376 9.4142 4.94448C14.0989 7.34033 14.0208 10.3666 13.9789 11.9924C13.9759 12.1115 13.973 12.2223 13.9721 12.3236C13.9682 12.7464 14.3079 13.0922 14.7307 13.0961C14.7331 13.0961 14.7354 13.0961 14.7378 13.0961C15.1573 13.0961 15.4993 12.7579 15.5032 12.3375C15.504 12.2439 15.5067 12.1418 15.5095 12.0318C15.5261 11.3871 15.5509 10.4103 15.2626 9.29128C16.004 9.82565 16.8374 10.2986 17.9008 10.6563C18.0508 10.7067 18.2127 10.7095 18.3644 10.6641C19.5273 10.3162 21.8743 10.1076 24.5029 10.1165C27.1221 10.1065 29.4725 10.3161 30.6354 10.6641C30.7869 10.7095 30.9488 10.7068 31.099 10.6563C32.1624 10.2986 32.9957 9.82565 33.7372 9.29128C33.4489 10.4104 33.4738 11.3871 33.4903 12.0318C33.4931 12.1418 33.4958 12.2439 33.4966 12.3375C33.5005 12.758 33.8424 13.0961 34.262 13.0961C34.2643 13.0961 34.2668 13.0961 34.2691 13.0961C34.6919 13.0922 35.0315 12.7464 35.0277 12.3236C35.0268 12.2223 35.0239 12.1115 35.0209 11.9924C34.979 10.3666 34.9009 7.34033 39.5856 4.94448C39.606 4.93405 39.6253 4.92256 39.6443 4.9106C41.3961 4.03278 43.7598 3.22874 47.2439 2.61724C46.972 3.72282 46.4618 5.57598 45.7283 7.48598Z" fill="#222222"/>
<path d="M25.3198 38.4424C25.3175 38.4424 25.3151 38.4424 25.3127 38.4424L23.7816 38.4563C23.3588 38.4601 23.0192 38.8059 23.023 39.2287C23.0268 39.6492 23.3687 39.9874 23.7884 39.9874C23.7907 39.9874 23.793 39.9874 23.7954 39.9874L25.3265 39.9735C25.7493 39.9697 26.0889 39.6239 26.0851 39.2011C26.0813 38.7806 25.7393 38.4424 25.3198 38.4424Z" fill="#222222"/>
</svg>
