<svg width="53" height="45" viewBox="0 0 53 45" fill="none" xmlns="http://www.w3.org/2000/svg">
<mask id="path-1-inside-1_1_2163" fill="white">
<path d="M52.4085 24.1599L46.951 19.5308C51.9277 14.6634 48.7675 5.52298 41.5983 5.1814C38.7507 -0.372325 31.47 -1.72715 26.8529 2.41704C26.6551 2.595 26.3449 2.59479 26.1471 2.41704C21.5203 -1.73573 14.2424 -0.358411 11.4017 5.1813C4.23434 5.52298 1.07069 14.6631 6.04866 19.5309L0.59152 24.1599C-0.109074 24.7541 -0.200375 25.8099 0.387491 26.518C2.72808 29.3374 6.49554 30.0754 9.55826 28.787C8.21938 39.832 15.7201 44.9992 26.4976 44.9999C26.4985 44.9999 26.4992 45 26.4999 45C26.5007 45 26.5016 44.9999 26.5023 44.9999C37.2386 44.9992 44.7863 39.862 43.4426 28.7873C46.5048 30.0751 50.2715 29.3375 52.6123 26.5179C53.2005 25.8099 53.1091 24.7541 52.4085 24.1599ZM6.09328 26.0331C5.42415 25.974 4.78898 25.7748 4.22006 25.4527L8.98136 21.414C9.03964 21.4362 9.94499 21.8037 11.1313 21.9166C10.8328 24.3854 8.64007 26.2572 6.09328 26.0331ZM26.5 35.0713C24.5681 35.0713 23.0663 33.513 22.8144 32.8083C24.0977 32.0217 28.9016 32.0211 30.1856 32.8083C29.9337 33.5131 28.432 35.0713 26.5 35.0713ZM28.1563 41.6045V38.2178C31.187 37.4842 33.5334 34.8721 33.5334 32.673C33.5334 30.694 31.849 29.8079 30.845 29.4559C28.6067 28.6713 24.3942 28.671 22.1549 29.4559C19.8157 30.2761 19.4665 31.8235 19.4665 32.673C19.4665 34.8722 21.813 37.4842 24.8438 38.2178V41.6045C14.7891 41.0189 10.6216 35.5972 13.7417 24.9113C14.3966 25.467 15.1166 25.9187 15.8765 26.2675C15.0119 26.5638 14.3888 27.3891 14.3888 28.3631C14.3888 29.5861 15.3697 30.5775 16.5798 30.5775C17.7899 30.5775 18.7708 29.5861 18.7708 28.3631C18.7708 27.8519 18.5978 27.3825 18.3099 27.0076C21.1862 27.4764 24.2617 26.6328 26.5002 24.3919C28.7677 26.6622 31.8781 27.4889 34.7685 26.9925C34.4738 27.3696 34.2964 27.8449 34.2964 28.3629C34.2964 29.5859 35.2774 30.5773 36.4874 30.5773C37.6975 30.5773 38.6785 29.5859 38.6785 28.3629C38.6785 27.374 38.037 26.5372 37.1517 26.2527C37.9026 25.9055 38.6132 25.4583 39.2588 24.9105C42.3686 35.5566 38.2527 41.0166 28.1563 41.6045ZM40.6507 18.5894C39.9123 18.5347 39.2268 18.9818 38.9732 19.6857C37.2343 24.5153 30.659 25.2968 27.9049 20.8381C27.2495 19.7774 25.7358 19.8012 25.0951 20.8381C22.3601 25.2649 15.7788 24.5517 14.0268 19.6857C13.7733 18.982 13.088 18.5346 12.3495 18.5893C12.3461 18.5895 12.3427 18.5894 12.3394 18.5896C11.3303 18.6708 10.3815 18.4676 9.51757 17.9853C4.84902 15.3863 6.98568 8.08417 12.3296 8.54147C13.074 8.6057 13.7686 8.15835 14.0256 7.44966C15.5329 3.29197 20.6973 2.00254 23.9474 4.91996C25.4026 6.22592 27.5974 6.22592 29.0524 4.91996C32.3089 1.99668 37.4691 3.29773 38.9742 7.44966C39.2312 8.15856 39.9277 8.60591 40.6702 8.54147C46.0385 8.07905 48.2037 15.5065 43.3657 18.0476C42.4897 18.5077 41.6059 18.6568 40.6507 18.5894ZM46.9067 26.0331C44.3597 26.2574 42.1676 24.3862 41.8687 21.9166C42.5572 21.8511 43.3065 21.6861 44.0186 21.414L48.7799 25.4527C48.2111 25.7748 47.5758 25.974 46.9067 26.0331Z"/>
</mask>
<path d="M52.4085 24.1599L46.951 19.5308C51.9277 14.6634 48.7675 5.52298 41.5983 5.1814C38.7507 -0.372325 31.47 -1.72715 26.8529 2.41704C26.6551 2.595 26.3449 2.59479 26.1471 2.41704C21.5203 -1.73573 14.2424 -0.358411 11.4017 5.1813C4.23434 5.52298 1.07069 14.6631 6.04866 19.5309L0.59152 24.1599C-0.109074 24.7541 -0.200375 25.8099 0.387491 26.518C2.72808 29.3374 6.49554 30.0754 9.55826 28.787C8.21938 39.832 15.7201 44.9992 26.4976 44.9999C26.4985 44.9999 26.4992 45 26.4999 45C26.5007 45 26.5016 44.9999 26.5023 44.9999C37.2386 44.9992 44.7863 39.862 43.4426 28.7873C46.5048 30.0751 50.2715 29.3375 52.6123 26.5179C53.2005 25.8099 53.1091 24.7541 52.4085 24.1599ZM6.09328 26.0331C5.42415 25.974 4.78898 25.7748 4.22006 25.4527L8.98136 21.414C9.03964 21.4362 9.94499 21.8037 11.1313 21.9166C10.8328 24.3854 8.64007 26.2572 6.09328 26.0331ZM26.5 35.0713C24.5681 35.0713 23.0663 33.513 22.8144 32.8083C24.0977 32.0217 28.9016 32.0211 30.1856 32.8083C29.9337 33.5131 28.432 35.0713 26.5 35.0713ZM28.1563 41.6045V38.2178C31.187 37.4842 33.5334 34.8721 33.5334 32.673C33.5334 30.694 31.849 29.8079 30.845 29.4559C28.6067 28.6713 24.3942 28.671 22.1549 29.4559C19.8157 30.2761 19.4665 31.8235 19.4665 32.673C19.4665 34.8722 21.813 37.4842 24.8438 38.2178V41.6045C14.7891 41.0189 10.6216 35.5972 13.7417 24.9113C14.3966 25.467 15.1166 25.9187 15.8765 26.2675C15.0119 26.5638 14.3888 27.3891 14.3888 28.3631C14.3888 29.5861 15.3697 30.5775 16.5798 30.5775C17.7899 30.5775 18.7708 29.5861 18.7708 28.3631C18.7708 27.8519 18.5978 27.3825 18.3099 27.0076C21.1862 27.4764 24.2617 26.6328 26.5002 24.3919C28.7677 26.6622 31.8781 27.4889 34.7685 26.9925C34.4738 27.3696 34.2964 27.8449 34.2964 28.3629C34.2964 29.5859 35.2774 30.5773 36.4874 30.5773C37.6975 30.5773 38.6785 29.5859 38.6785 28.3629C38.6785 27.374 38.037 26.5372 37.1517 26.2527C37.9026 25.9055 38.6132 25.4583 39.2588 24.9105C42.3686 35.5566 38.2527 41.0166 28.1563 41.6045ZM40.6507 18.5894C39.9123 18.5347 39.2268 18.9818 38.9732 19.6857C37.2343 24.5153 30.659 25.2968 27.9049 20.8381C27.2495 19.7774 25.7358 19.8012 25.0951 20.8381C22.3601 25.2649 15.7788 24.5517 14.0268 19.6857C13.7733 18.982 13.088 18.5346 12.3495 18.5893C12.3461 18.5895 12.3427 18.5894 12.3394 18.5896C11.3303 18.6708 10.3815 18.4676 9.51757 17.9853C4.84902 15.3863 6.98568 8.08417 12.3296 8.54147C13.074 8.6057 13.7686 8.15835 14.0256 7.44966C15.5329 3.29197 20.6973 2.00254 23.9474 4.91996C25.4026 6.22592 27.5974 6.22592 29.0524 4.91996C32.3089 1.99668 37.4691 3.29773 38.9742 7.44966C39.2312 8.15856 39.9277 8.60591 40.6702 8.54147C46.0385 8.07905 48.2037 15.5065 43.3657 18.0476C42.4897 18.5077 41.6059 18.6568 40.6507 18.5894ZM46.9067 26.0331C44.3597 26.2574 42.1676 24.3862 41.8687 21.9166C42.5572 21.8511 43.3065 21.6861 44.0186 21.414L48.7799 25.4527C48.2111 25.7748 47.5758 25.974 46.9067 26.0331Z" fill="#E70000" stroke="white" stroke-width="2" mask="url(#path-1-inside-1_1_2163)"/>
</svg>
