<svg width="53" height="45" viewBox="0 0 53 45" fill="none" xmlns="http://www.w3.org/2000/svg">
<path d="M46.2091 19.5571L46.6014 19.1733C51.2847 14.5929 48.2815 6.00039 41.5745 5.68083L41.2855 5.66706L41.1534 5.40953C38.4544 0.145711 31.5587 -1.1344 27.1873 2.78876L46.2091 19.5571ZM46.2091 19.5571L46.6276 19.9121L52.085 24.5412L52.4085 24.1599M46.2091 19.5571L52.4085 24.1599M52.4085 24.1599L52.0851 24.5412C52.576 24.9576 52.6412 25.7006 52.2277 26.1984L52.2276 26.1985C50.0335 28.8414 46.5045 29.5326 43.6364 28.3264L42.8425 27.9925L42.9462 28.8475C43.6021 34.2529 42.0871 38.1296 39.1739 40.6695C36.2374 43.2296 31.8031 44.4995 26.5023 44.4999L52.4085 24.1599ZM11.7145 5.66695L11.4255 5.68073C4.72006 6.0004 1.714 14.5928 6.39824 19.1734L6.79066 19.5572L6.3721 19.9122L0.914956 24.5412L0.914944 24.5412C0.424052 24.9576 0.358824 25.7007 0.772208 26.1987C2.96609 28.8413 6.49577 29.5329 9.36438 28.3261L10.1583 27.9922L10.0546 28.8472C9.40111 34.2383 10.906 38.1152 13.8135 40.6587C16.7439 43.2222 21.1765 44.4995 26.4976 44.4999L11.7145 5.66695ZM11.7145 5.66695L11.8466 5.40945M11.7145 5.66695L11.8466 5.40945M11.8466 5.40945C14.5393 0.158462 21.4329 -1.14232 25.8131 2.78914M11.8466 5.40945L25.8131 2.78914M40.6156 19.0882L40.6138 19.0881C40.1017 19.0501 39.622 19.36 39.4436 19.8552C37.5656 25.0708 30.4579 25.9226 27.4795 21.1009L40.6156 19.0882ZM40.6156 19.0882C41.6514 19.1613 42.6298 18.9989 43.5982 18.4903C48.9036 15.7037 46.557 7.53254 40.6273 8.04331L40.627 8.04334C40.1129 8.08795 39.6251 7.77804 39.4443 7.27925C37.8196 2.79748 32.2414 1.38547 28.7185 4.54786C27.4535 5.68326 25.5466 5.68331 24.2813 4.54787C20.7656 1.39195 15.1827 2.79083 13.5555 7.27924C13.3746 7.77805 12.8884 8.08783 12.3726 8.04332L12.3722 8.04329C6.46213 7.53754 4.16111 15.575 9.27386 18.4218C10.2226 18.9515 11.2661 19.1752 12.3666 19.0891C12.3707 19.0889 12.3756 19.0887 12.3811 19.0883L12.3811 19.0884M40.6156 19.0882L12.3811 19.0884M12.3811 19.0884L12.3864 19.088M12.3811 19.0884L12.3864 19.088M12.3864 19.088C12.8984 19.05 13.378 19.36 13.5564 19.8551C15.4495 25.1129 22.5644 25.8856 25.5205 21.1009M12.3864 19.088L25.5205 21.1009M25.8131 2.78914C26.2006 3.13713 26.7988 3.13792 27.1869 2.78914L25.8131 2.78914ZM25.5205 21.1009C25.9694 20.3743 27.0232 20.3624 27.4795 21.1009L25.5205 21.1009ZM6.04928 26.5312L6.04945 26.5312C8.8745 26.7798 11.298 24.7037 11.6277 21.9767L11.6892 21.4675L11.1787 21.4189C10.104 21.3165 9.27327 20.9913 9.16864 20.9503C9.1647 20.9488 9.16179 20.9476 9.15993 20.9469L8.88357 20.8413L8.65793 21.0327L3.89662 25.0714L3.35029 25.5348L3.9737 25.8878C4.60499 26.2452 5.30919 26.4658 6.04928 26.5312ZM22.5531 32.382L22.2068 32.5942L22.3436 32.9766C22.5157 33.4582 23.0392 34.0972 23.7307 34.6066C24.439 35.1284 25.399 35.5713 26.5 35.5713C27.6011 35.5713 28.5611 35.1284 29.2694 34.6067C29.9609 34.0973 30.4843 33.4582 30.6564 32.9766L30.7931 32.5942L30.4469 32.382C30.0353 32.1297 29.4092 31.9712 28.7473 31.8712C28.0666 31.7684 27.28 31.7181 26.4997 31.7181C25.7194 31.7182 24.9329 31.7685 24.2522 31.8714C23.5905 31.9714 22.9645 32.1298 22.5531 32.382ZM27.6563 41.6045V42.1344L28.1854 42.1036C33.3019 41.8057 37.043 40.2662 39.072 37.3124C41.0986 34.3622 41.3113 30.154 39.7387 24.7703L39.5227 24.0308L38.9353 24.5293C38.3255 25.0467 37.6534 25.4699 36.9418 25.7989L35.865 26.2968L34.6838 26.4997C31.942 26.9706 28.9986 26.1858 26.8539 24.0386L26.5002 23.6844L26.1464 24.0386C24.0292 26.1581 21.1185 26.9588 18.3903 26.5142L17.1844 26.3176L16.0851 25.813C15.3651 25.4826 14.684 25.0552 14.0653 24.5301L13.4778 24.0315L13.2618 24.7711C11.6839 30.1751 11.907 34.3842 13.9407 37.3296C15.9764 40.2778 19.7196 41.8069 24.8147 42.1036L25.3438 42.1344V41.6045V38.2178V37.8244L24.9614 37.7319C23.546 37.3893 22.2852 36.6055 21.3816 35.6512C20.4709 34.6894 19.9665 33.6034 19.9665 32.673C19.9665 32.3146 20.0402 31.8162 20.3551 31.3222C20.6663 30.8341 21.241 30.3062 22.3203 29.9278C23.3654 29.5614 24.9156 29.3673 26.5003 29.3673C28.0851 29.3674 29.6349 29.5616 30.6796 29.9278C31.6585 30.2709 33.0334 31.046 33.0334 32.673C33.0334 33.6034 32.529 34.6894 31.6183 35.6512C30.7147 36.6055 29.454 37.3893 28.0387 37.7319L27.6563 37.8244V38.2178V41.6045ZM35.1625 27.3003L35.888 26.3718L36.9987 26.7287C37.6807 26.9479 38.1785 27.5948 38.1785 28.3629C38.1785 29.3148 37.4164 30.0773 36.4874 30.0773C35.5585 30.0773 34.7964 29.3148 34.7964 28.3629C34.7964 27.9611 34.9335 27.5933 35.1625 27.3003ZM16.0387 26.7404L17.1751 26.3509L17.9133 27.3122C18.1371 27.6036 18.2708 27.9669 18.2708 28.3631C18.2708 29.315 17.5088 30.0775 16.5798 30.0775C15.6509 30.0775 14.8888 29.315 14.8888 28.3631C14.8888 27.6072 15.3719 26.969 16.0387 26.7404ZM46.9506 26.5312L46.9507 26.5312C47.6908 26.4658 48.3951 26.2452 49.0263 25.8878L49.6497 25.5348L49.1034 25.0714L44.3421 21.0327L44.1165 20.8413L43.8401 20.9469C43.1724 21.2021 42.4674 21.3573 41.8213 21.4189L41.3107 21.4675L41.3723 21.9767C41.7024 24.7045 44.1252 26.78 46.9506 26.5312Z" fill="#222222" stroke="#EBEBEB"/>
</svg>
