<svg width="59" height="45" viewBox="0 0 59 45" fill="none" xmlns="http://www.w3.org/2000/svg">
<path d="M49.4669 0.280549L49.4669 0.280564C49.2636 0.359848 49.0556 0.593646 48.897 1.03661C48.7412 1.47171 48.6498 2.06556 48.6474 2.78146C48.6464 3.0593 48.7103 3.53866 48.8084 4.03568C48.9061 4.53137 49.0321 5.01537 49.1454 5.30235L49.4669 0.280549ZM49.4669 0.280549C49.4936 0.270127 49.5591 0.256384 49.6533 0.251654C49.743 0.24715 49.8363 0.251929 49.9096 0.264891L49.9096 0.264904M49.4669 0.280549L49.9096 0.264904M25.7073 27.1693L25.7072 27.1693C24.5244 27.413 24.0175 27.4476 21.8476 27.445C20.6421 27.4436 19.9957 27.4404 19.4049 27.3835C18.8117 27.3264 18.2778 27.2156 17.2981 27.0066L17.3502 26.7621L17.2981 27.0066C14.8978 26.4946 13.6452 26.4535 12.2619 26.8085C10.6028 27.2341 9.04336 28.1497 8.02549 29.2853L8.02548 29.2853L7.49084 29.8817L7.30467 30.0894L7.11852 29.8817L6.6042 29.3079C5.96506 28.5948 5.12488 28.0187 4.10523 27.6025C3.57593 27.3865 3.2643 27.2962 3.04045 27.2931L25.7073 27.1693ZM25.7073 27.1693C31.0724 26.0636 35.626 23.1318 38.7344 18.7778C39.7797 17.3136 40.9996 14.7915 41.6562 12.7461L41.4181 12.6697L41.6562 12.7461C42.0231 11.6028 42.3245 10.8299 42.6889 10.1848C43.0513 9.54312 43.4817 9.01772 44.119 8.37763L43.9418 8.20124L44.119 8.37761C45.4606 7.02988 46.74 6.31066 48.3801 5.96915L48.3291 5.7244M25.7073 27.1693L48.3291 5.7244M48.3291 5.7244L48.3801 5.96915M48.3291 5.7244L48.3801 5.96915M49.9096 0.264904C50.3165 0.336765 52.2116 0.838907 54.052 1.3473C54.9678 1.60028 55.8635 1.85298 56.5437 2.05137C56.884 2.15062 57.1692 2.23593 57.3755 2.30072C57.4789 2.33319 57.5607 2.35995 57.6191 2.3804C57.6485 2.39068 57.6698 2.39865 57.6841 2.40441C57.6866 2.40541 57.6887 2.40628 57.6904 2.40699C57.8269 2.49969 57.9095 2.62145 57.9462 2.79233C57.986 2.9779 57.9734 3.23226 57.8858 3.57766L58.1281 3.63914L49.9096 0.264904ZM53.1272 3.23159L53.1912 2.9899C54.2989 3.28291 55.3044 3.55173 55.4202 3.58614M53.1272 3.23159L54.8168 4.88844M53.1272 3.23159L53.1911 2.98989C52.0777 2.6955 51.0744 2.42748 50.9573 2.3934L50.9573 2.39339C50.9292 2.38522 50.895 2.376 50.86 2.37031C50.8263 2.36481 50.7757 2.3597 50.7194 2.37108C50.6563 2.38385 50.5935 2.416 50.5444 2.47275C50.4997 2.52445 50.4793 2.58168 50.4689 2.6251C50.4496 2.70577 50.4509 2.80186 50.456 2.89433C50.4615 2.99375 50.4738 3.12125 50.4903 3.27913L50.7389 3.25324M53.1272 3.23159L50.7389 3.25324M55.4202 3.58614L55.349 3.82578L55.42 3.58609C55.4201 3.58611 55.4202 3.58613 55.4202 3.58614ZM55.4202 3.58614C55.5224 3.61647 55.6597 3.68818 55.7081 3.85221C55.75 3.99405 55.6998 4.13098 55.6514 4.22763C55.5502 4.42968 55.3274 4.70079 55.0012 5.05722L54.8168 4.88844M54.8168 4.88844L55.0012 5.05723C54.1227 6.01714 53.0649 6.31172 52.1643 5.95058C51.273 5.59318 50.6311 4.63062 50.4903 3.27915L50.7389 3.25324M54.8168 4.88844L50.7389 3.25324M51.0967 24.3348L50.9299 24.1486C50.9841 24.1001 51.0718 23.9909 51.1889 23.8134C51.3024 23.6414 51.4329 23.4218 51.5738 23.1678C51.8554 22.6603 52.1731 22.0258 52.4716 21.3822C52.7702 20.7385 53.048 20.0896 53.2505 19.5535C53.3518 19.2853 53.4332 19.0482 53.4889 18.8558C53.5468 18.6557 53.5698 18.5272 53.5698 18.465C53.5698 18.299 53.492 18.0863 53.3691 17.911C53.3092 17.8256 53.2454 17.7592 53.1877 17.7166C53.1272 17.672 53.0923 17.6668 53.0845 17.6668C52.9696 17.6668 52.807 17.6399 52.6945 17.6024C52.6929 17.6025 52.6911 17.6025 52.6891 17.6027C52.671 17.6037 52.6434 17.6076 52.6075 17.616C52.5357 17.6327 52.4496 17.663 52.3708 17.7022C52.2682 17.7531 52.2036 17.7905 52.1502 17.8339C52.0993 17.8752 52.0501 17.9291 51.9919 18.0204C51.8673 18.216 51.7238 18.5457 51.4535 19.2022C51.2164 19.778 50.6568 20.962 50.2088 21.8368C49.8548 22.5282 49.6621 22.9237 49.5642 23.1889L51.0967 24.3348ZM51.0967 24.3348L50.9299 24.1486C50.4491 24.5793 49.6136 24.295 49.4965 23.6692L51.0967 24.3348ZM48.3801 5.96915C48.5172 5.94059 48.632 5.91436 48.7254 5.88812M48.3801 5.96915L48.7254 5.88812M48.7254 5.88812C48.816 5.86267 48.9011 5.83333 48.9708 5.79395M48.7254 5.88812L48.9708 5.79395M48.9708 5.79395C49.0411 5.75418 49.1259 5.6869 49.1624 5.57299M48.9708 5.79395L49.1624 5.57299M49.1624 5.57299C49.1978 5.46246 49.1695 5.36319 49.1455 5.30246L49.1624 5.57299ZM9.55019 39.9447L9.72774 39.7687L9.5502 39.9448C10.0984 40.4977 10.5871 40.8889 11.1954 41.1997C11.7997 41.5084 12.51 41.7316 13.4918 41.9645C23.3299 44.298 33.3556 42.5111 41.8382 36.9131C43.9393 35.5266 45.4993 34.2343 47.4758 32.2453C50.7313 28.9688 53.1234 25.4491 54.9295 21.2763C55.6977 19.5014 56.655 16.6418 56.8488 15.5254C57.0063 14.6184 56.9269 13.3166 56.6605 12.4463C56.0089 10.3177 54.1838 8.4955 52.0764 7.87481L52.0058 8.11463L52.0764 7.87481C51.7332 7.77377 51.2203 7.69194 50.7398 7.64499C50.2653 7.59863 49.7822 7.58215 49.5079 7.62804C47.5976 7.94753 46.4006 8.53393 45.2799 9.72561C44.3839 10.6784 43.8629 11.6886 43.3076 13.4962L43.5466 13.5696C40.6267 23.0768 31.8262 29.5665 21.8449 29.5731C20.1259 29.5743 18.9286 29.4386 17.0578 29.031L17.1111 28.7867C17.1111 28.7867 17.1111 28.7867 17.1111 28.7867C15.2863 28.3891 13.627 28.3009 12.6196 28.581C9.72811 29.385 7.74636 31.8033 7.55567 34.7682C7.42701 36.7674 8.08466 38.4664 9.55019 39.9447ZM52.6763 17.5961L52.6765 17.5962L52.6763 17.5961ZM4.40279 34.531L4.40282 34.531C5.08109 34.2381 5.58136 33.8003 5.844 33.2626C6.10877 32.7205 6.11878 32.1032 5.86219 31.4872C5.7447 31.205 5.53571 30.8924 5.29558 30.6086C5.05442 30.3235 4.76964 30.053 4.48973 29.8602C4.38618 29.7889 4.30047 29.731 4.23003 29.6876C4.16292 29.6463 4.09335 29.6076 4.02531 29.5858C3.95117 29.5622 3.84752 29.5491 3.74374 29.6055C3.65679 29.6527 3.61003 29.7297 3.58914 29.7649L3.58913 29.7649C3.57366 29.791 3.56326 29.8198 3.55972 29.8296L3.55929 29.8308C3.55343 29.8469 3.54704 29.8661 3.54039 29.8868C3.52698 29.9287 3.51014 29.9845 3.49062 30.0512C3.45148 30.1849 3.39986 30.3683 3.34032 30.5842C3.22114 31.0162 3.06917 31.5818 2.91956 32.1479C2.76996 32.7139 2.62249 33.2813 2.51235 33.717C2.45731 33.9347 2.41136 34.1205 2.37907 34.257C2.36297 34.3251 2.34992 34.3823 2.34078 34.4258C2.33624 34.4474 2.33229 34.4673 2.32935 34.4844L2.32919 34.4853C2.32731 34.4962 2.32238 34.5247 2.32238 34.5532C2.32238 34.736 2.47066 34.8147 2.52979 34.8379C2.59857 34.8649 2.67583 34.874 2.74128 34.8775C2.87837 34.8848 3.05447 34.8706 3.23843 34.8439C3.60765 34.7902 4.06304 34.6776 4.40279 34.531ZM14.9478 30.7264L14.9479 30.7264C15.1011 30.6627 15.3384 30.6759 15.5831 30.7818C15.8255 30.8867 16.0185 31.0589 16.0997 31.2377C16.1608 31.3722 16.1722 31.5745 16.1199 31.7862C16.0677 31.9976 15.963 32.1737 15.8443 32.2674C15.2775 32.7145 14.3646 32.2738 14.3646 31.5059C14.3646 31.4205 14.4253 31.2569 14.5557 31.0782C14.683 30.9037 14.8342 30.7736 14.9478 30.7264ZM24.8806 31.356L24.8806 31.356C25.0762 31.3309 25.2987 31.3169 25.4982 31.3149C25.7033 31.3129 25.8642 31.3238 25.9453 31.341L25.9453 31.341C26.3742 31.4321 26.5771 31.7749 26.5621 32.1483C26.5471 32.5256 26.3067 32.907 25.8454 33.0309L25.9103 33.2724L25.8454 33.0309C25.414 33.1469 24.3995 33.2423 23.2538 33.2896C22.1171 33.3364 20.8871 33.3347 20.0406 33.2662C19.0939 33.1896 18.5907 33.1363 18.2873 33.054C18.1421 33.0147 18.0586 32.9724 17.9997 32.9279C17.9406 32.8832 17.8908 32.8247 17.8272 32.7273C17.6886 32.5151 17.6419 32.3075 17.6643 32.1223C17.6867 31.9376 17.7804 31.7533 17.9616 31.5909L18.2612 31.3225L19.3858 31.4083C20.8588 31.5206 23.8043 31.4939 24.8806 31.356ZM52.8959 15.6231C52.7639 15.1815 52.9655 14.7532 53.3508 14.5907C53.8092 14.3974 54.2239 14.5748 54.4454 14.8879C54.6659 15.1996 54.6868 15.6319 54.3441 15.9756C54.2275 16.0926 54.1422 16.1533 54.0614 16.1882C53.982 16.2226 53.8875 16.2405 53.7389 16.2405C53.4849 16.2405 53.3122 16.1857 53.1897 16.0956C53.0676 16.0058 52.9666 15.86 52.8959 15.6231Z" fill="#222222" stroke="#EBEBEB" stroke-width="0.5"/>
</svg>
