<svg width="59" height="45" viewBox="0 0 59 45" fill="none" xmlns="http://www.w3.org/2000/svg">
<mask id="path-1-inside-1_1_2182" fill="white">
<path fill-rule="evenodd" clip-rule="evenodd" d="M49.376 0.04766C48.7709 0.283742 48.4023 1.31306 48.3974 2.78061C48.3953 3.38789 48.6695 4.77799 48.9129 5.3943C48.9755 5.55246 48.871 5.61151 48.3291 5.7244C46.6354 6.07708 45.3135 6.8233 43.9418 8.20124C42.6483 9.50044 42.1549 10.3741 41.4181 12.6697C40.768 14.6953 39.5586 17.1931 38.531 18.6325C35.4602 22.9339 30.9619 25.8311 25.6568 26.9244C24.4991 27.163 24.0123 27.1976 21.8479 27.195C19.4288 27.1921 19.3154 27.1812 17.3502 26.7621C14.9342 26.2468 13.6374 26.1974 12.1997 26.5663C10.4983 27.0028 8.89382 27.9419 7.83932 29.1184L7.30469 29.7148L6.79037 29.141C6.12276 28.3962 5.24971 27.7996 4.19972 27.371C3.14522 26.9406 2.79226 26.9357 2.33923 27.3452C2.01605 27.6374 1.90155 27.983 0.948164 31.5423C-0.148807 35.6381 -0.187589 35.9253 0.294644 36.3798C0.888145 36.9391 3.29181 37.0885 4.64998 36.6502C5.06261 36.5171 5.43358 36.4076 5.47421 36.4067C5.51495 36.4059 5.63314 36.7829 5.73691 37.2447C5.84067 37.7064 6.16501 38.5783 6.45772 39.1821C6.91502 40.1259 7.14587 40.4367 8.10133 41.3953C9.05668 42.3535 9.36693 42.5854 10.3076 43.0443C13.9993 44.8451 21.9389 45.5284 27.9075 44.5589C33.2479 43.6914 38.3045 41.7056 42.9124 38.6661C46.779 36.1157 50.2847 32.7305 52.9774 28.9473C55.6484 25.1944 58.0495 19.9036 58.8424 16.0236C59.4251 13.1719 58.3628 9.97261 56.141 7.88793L55.5626 7.34525L56.0209 6.9759C56.9337 6.23998 57.8273 4.82499 58.1281 3.63914C58.3127 2.91168 58.2139 2.45121 57.8173 2.19116C57.5958 2.04585 50.7969 0.167727 49.9531 0.0187142C49.7627 -0.0149787 49.503 -0.00189521 49.376 0.04766ZM53.1272 3.23159C54.2382 3.52544 55.238 3.79279 55.349 3.82579C55.6092 3.9029 55.4765 4.16746 54.8168 4.88844C53.1596 6.69918 51.0081 5.83636 50.7389 3.25324C50.6729 2.61921 50.6836 2.57417 50.8875 2.63345C51.0084 2.66865 52.0163 2.93784 53.1272 3.23159ZM52.0058 8.11463C54.0311 8.71115 55.7939 10.4697 56.4215 12.5195C56.6762 13.3517 56.7533 14.6138 56.6025 15.4826C56.4136 16.5704 55.4653 19.4089 54.7001 21.177C52.9065 25.3206 50.5323 28.8144 47.2984 32.069C45.3327 34.0473 43.7858 35.3283 41.7005 36.7044C33.2751 42.2647 23.3201 44.0387 13.5495 41.7212C11.5985 41.2584 10.8001 40.8505 9.72774 39.7687C8.31001 38.3386 7.68131 36.7086 7.80516 34.7843C7.98891 31.9272 9.89591 29.5979 12.6866 28.8219C13.6335 28.5586 15.2434 28.6356 17.0578 29.031C18.9286 29.4386 20.1259 29.5743 21.8449 29.5731C31.8262 29.5665 40.6267 23.0768 43.5466 13.5696C44.0957 11.7822 44.6018 10.8116 45.4621 9.89688C46.538 8.75271 47.6814 8.18699 49.5492 7.87461C50.026 7.79484 51.3636 7.92556 52.0058 8.11463ZM53.2536 14.3603C52.7428 14.5758 52.4905 15.1394 52.6563 15.6946C52.8192 16.2398 53.16 16.4905 53.7389 16.4905C54.0767 16.4905 54.2649 16.4091 54.5212 16.1521C55.3984 15.2721 54.4087 13.8732 53.2536 14.3603ZM52.2596 17.4783C51.8329 17.6901 51.7559 17.811 51.2223 19.107C50.9889 19.6739 50.4327 20.851 49.9863 21.7229C49.2821 23.0981 49.1848 23.362 49.2508 23.7152C49.4042 24.5351 50.4726 24.8938 51.0967 24.3348C51.7372 23.7612 53.8198 19.2719 53.8198 18.465C53.8198 18.0025 53.4089 17.4168 53.0845 17.4168C52.9914 17.4168 52.8461 17.3917 52.7616 17.3611C52.677 17.3304 52.4511 17.3832 52.2596 17.4783ZM4.34792 30.0661C4.86316 30.421 5.42296 31.0827 5.63141 31.5833C6.09449 32.6951 5.57878 33.7509 4.30371 34.3015C3.67547 34.5726 2.57238 34.7331 2.57238 34.5532C2.57238 34.4022 3.73214 30.0139 3.80417 29.8924C3.88046 29.7638 3.93356 29.7807 4.34792 30.0661ZM14.8519 30.4955C14.5066 30.639 14.1146 31.1761 14.1146 31.5059C14.1146 32.4683 15.2573 33.049 15.9992 32.4636C16.3486 32.1878 16.5096 31.5357 16.3273 31.1343C16.0992 30.6319 15.3276 30.2978 14.8519 30.4955ZM24.8488 31.108C23.7943 31.2432 20.8668 31.2705 19.4048 31.159L18.1739 31.0651L17.7947 31.4048C17.3531 31.8007 17.2858 32.3556 17.6179 32.864C17.9011 33.2975 18.1444 33.3635 20.0204 33.5154C21.742 33.6547 24.9855 33.521 25.9103 33.2724C27.0655 32.962 27.1305 31.3372 25.9973 31.0965C25.7783 31.0499 25.2615 31.0551 24.8488 31.108Z"/>
</mask>
<path fill-rule="evenodd" clip-rule="evenodd" d="M49.376 0.04766C48.7709 0.283742 48.4023 1.31306 48.3974 2.78061C48.3953 3.38789 48.6695 4.77799 48.9129 5.3943C48.9755 5.55246 48.871 5.61151 48.3291 5.7244C46.6354 6.07708 45.3135 6.8233 43.9418 8.20124C42.6483 9.50044 42.1549 10.3741 41.4181 12.6697C40.768 14.6953 39.5586 17.1931 38.531 18.6325C35.4602 22.9339 30.9619 25.8311 25.6568 26.9244C24.4991 27.163 24.0123 27.1976 21.8479 27.195C19.4288 27.1921 19.3154 27.1812 17.3502 26.7621C14.9342 26.2468 13.6374 26.1974 12.1997 26.5663C10.4983 27.0028 8.89382 27.9419 7.83932 29.1184L7.30469 29.7148L6.79037 29.141C6.12276 28.3962 5.24971 27.7996 4.19972 27.371C3.14522 26.9406 2.79226 26.9357 2.33923 27.3452C2.01605 27.6374 1.90155 27.983 0.948164 31.5423C-0.148807 35.6381 -0.187589 35.9253 0.294644 36.3798C0.888145 36.9391 3.29181 37.0885 4.64998 36.6502C5.06261 36.5171 5.43358 36.4076 5.47421 36.4067C5.51495 36.4059 5.63314 36.7829 5.73691 37.2447C5.84067 37.7064 6.16501 38.5783 6.45772 39.1821C6.91502 40.1259 7.14587 40.4367 8.10133 41.3953C9.05668 42.3535 9.36693 42.5854 10.3076 43.0443C13.9993 44.8451 21.9389 45.5284 27.9075 44.5589C33.2479 43.6914 38.3045 41.7056 42.9124 38.6661C46.779 36.1157 50.2847 32.7305 52.9774 28.9473C55.6484 25.1944 58.0495 19.9036 58.8424 16.0236C59.4251 13.1719 58.3628 9.97261 56.141 7.88793L55.5626 7.34525L56.0209 6.9759C56.9337 6.23998 57.8273 4.82499 58.1281 3.63914C58.3127 2.91168 58.2139 2.45121 57.8173 2.19116C57.5958 2.04585 50.7969 0.167727 49.9531 0.0187142C49.7627 -0.0149787 49.503 -0.00189521 49.376 0.04766ZM53.1272 3.23159C54.2382 3.52544 55.238 3.79279 55.349 3.82579C55.6092 3.9029 55.4765 4.16746 54.8168 4.88844C53.1596 6.69918 51.0081 5.83636 50.7389 3.25324C50.6729 2.61921 50.6836 2.57417 50.8875 2.63345C51.0084 2.66865 52.0163 2.93784 53.1272 3.23159ZM52.0058 8.11463C54.0311 8.71115 55.7939 10.4697 56.4215 12.5195C56.6762 13.3517 56.7533 14.6138 56.6025 15.4826C56.4136 16.5704 55.4653 19.4089 54.7001 21.177C52.9065 25.3206 50.5323 28.8144 47.2984 32.069C45.3327 34.0473 43.7858 35.3283 41.7005 36.7044C33.2751 42.2647 23.3201 44.0387 13.5495 41.7212C11.5985 41.2584 10.8001 40.8505 9.72774 39.7687C8.31001 38.3386 7.68131 36.7086 7.80516 34.7843C7.98891 31.9272 9.89591 29.5979 12.6866 28.8219C13.6335 28.5586 15.2434 28.6356 17.0578 29.031C18.9286 29.4386 20.1259 29.5743 21.8449 29.5731C31.8262 29.5665 40.6267 23.0768 43.5466 13.5696C44.0957 11.7822 44.6018 10.8116 45.4621 9.89688C46.538 8.75271 47.6814 8.18699 49.5492 7.87461C50.026 7.79484 51.3636 7.92556 52.0058 8.11463ZM53.2536 14.3603C52.7428 14.5758 52.4905 15.1394 52.6563 15.6946C52.8192 16.2398 53.16 16.4905 53.7389 16.4905C54.0767 16.4905 54.2649 16.4091 54.5212 16.1521C55.3984 15.2721 54.4087 13.8732 53.2536 14.3603ZM52.2596 17.4783C51.8329 17.6901 51.7559 17.811 51.2223 19.107C50.9889 19.6739 50.4327 20.851 49.9863 21.7229C49.2821 23.0981 49.1848 23.362 49.2508 23.7152C49.4042 24.5351 50.4726 24.8938 51.0967 24.3348C51.7372 23.7612 53.8198 19.2719 53.8198 18.465C53.8198 18.0025 53.4089 17.4168 53.0845 17.4168C52.9914 17.4168 52.8461 17.3917 52.7616 17.3611C52.677 17.3304 52.4511 17.3832 52.2596 17.4783ZM4.34792 30.0661C4.86316 30.421 5.42296 31.0827 5.63141 31.5833C6.09449 32.6951 5.57878 33.7509 4.30371 34.3015C3.67547 34.5726 2.57238 34.7331 2.57238 34.5532C2.57238 34.4022 3.73214 30.0139 3.80417 29.8924C3.88046 29.7638 3.93356 29.7807 4.34792 30.0661ZM14.8519 30.4955C14.5066 30.639 14.1146 31.1761 14.1146 31.5059C14.1146 32.4683 15.2573 33.049 15.9992 32.4636C16.3486 32.1878 16.5096 31.5357 16.3273 31.1343C16.0992 30.6319 15.3276 30.2978 14.8519 30.4955ZM24.8488 31.108C23.7943 31.2432 20.8668 31.2705 19.4048 31.159L18.1739 31.0651L17.7947 31.4048C17.3531 31.8007 17.2858 32.3556 17.6179 32.864C17.9011 33.2975 18.1444 33.3635 20.0204 33.5154C21.742 33.6547 24.9855 33.521 25.9103 33.2724C27.0655 32.962 27.1305 31.3372 25.9973 31.0965C25.7783 31.0499 25.2615 31.0551 24.8488 31.108Z" fill="#E70000" stroke="#EBEBEB" mask="url(#path-1-inside-1_1_2182)"/>
</svg>
