<svg width="49" height="47" viewBox="0 0 49 47" fill="none" xmlns="http://www.w3.org/2000/svg">
<path d="M45.9994 7.17865L46.2208 6.73293L48.3809 2.38365L48.381 2.38362C48.6606 1.82057 48.4308 1.13735 47.8679 0.857779L47.8678 0.85776C47.3046 0.577993 46.6218 0.807894 46.342 1.37094L44.1819 5.72013L43.9605 6.16587L43.5137 5.94655C42.1883 5.29586 40.6032 5.56048 39.562 6.60768L39.5619 6.60775L33.4224 12.7806L33.4223 12.7807C33.1644 13.0399 33.0468 13.4076 33.1064 13.7685C33.166 14.1298 33.3954 14.44 33.7231 14.6028L34.8205 15.1479L35.1816 15.3272L35.0829 15.718C34.7823 16.9093 34.1355 18.9006 32.8151 21.1082C32.4326 21.7478 32.0187 22.3605 31.5796 22.9505L30.8307 23.9569L30.682 22.7113C30.4147 20.471 29.3312 18.5339 27.5724 17.0083L27.0071 16.518L27.6764 16.1834L27.9674 16.0379L27.9674 16.0379C28.3934 15.8249 28.6417 15.3691 28.5899 14.8957L45.9994 7.17865ZM45.9994 7.17865L46.4441 7.40211M45.9994 7.17865L46.4441 7.40211M46.4441 7.40211C47.7628 8.06474 48.5104 9.48765 48.3055 10.9503L47.0975 19.5723C47.0372 20.0021 46.7379 20.3603 46.3256 20.4958L46.3255 20.4958C45.9131 20.6315 45.4598 20.5207 45.1564 20.2103L45.156 20.2099L45.1238 20.1771L44.5465 19.5879L44.2912 20.3723C42.0589 27.2335 39.2965 32.8138 36.0795 36.992L36.0794 36.992C33.1627 40.7807 29.8696 43.4372 26.2994 44.9172C23.9016 45.9111 21.6282 46.2617 19.6655 46.2617C16.9767 46.2617 14.8878 45.6044 13.8731 45.0627C13.3284 44.7718 12.1788 44.0893 11.2038 43.0727C10.2277 42.055 9.47676 40.7578 9.59327 39.2172L9.59328 39.2172C9.6484 38.4875 9.88964 37.7774 10.3311 37.0795L10.6563 36.5654L10.089 36.3459C8.22304 35.6239 6.48041 34.5396 4.95881 33.1225C2.10618 30.4659 0.5 27.0683 0.5 23.8207C0.5 21.1015 1.63688 18.7768 3.67581 17.0081L4.24087 16.518L3.57188 16.1833L3.28101 16.0378L3.28091 16.0377C2.85502 15.8248 2.60657 15.3689 2.65845 14.8955C2.71051 14.4219 3.0518 14.0309 3.51384 13.9153L14.107 11.2672L14.4858 11.1725V10.7821V6.14412C14.4858 5.51549 14.9954 5.00584 15.6241 5.00584C16.2527 5.00584 16.7624 5.5155 16.7624 6.14412V10.7821V11.1725L17.1411 11.2672L27.7345 13.9155L27.7346 13.9155M46.4441 7.40211L27.7346 13.9155M27.7346 13.9155C28.1964 14.0309 28.5377 14.4219 28.5898 14.8956L27.7346 13.9155ZM14.9455 43.0544L14.9454 43.0544C14.1784 42.6448 13.4061 42.0971 12.8286 41.4903C12.2695 40.9027 11.8047 40.1655 11.8634 39.389C11.8634 39.389 11.8634 39.389 11.8634 39.389L12.362 39.4267L14.9455 43.0544ZM14.9455 43.0544C16.2142 43.7315 20.4108 44.8938 25.4275 42.8139C30.4443 40.7341 37.2684 34.9038 42.2773 19.1976L42.7692 17.6551L41.4932 18.6516L39.3424 20.3312C39.1398 20.4894 38.8927 20.5723 38.6415 20.5723C38.5322 20.5723 38.422 20.5565 38.3145 20.5242L38.3143 20.5241M14.9455 43.0544L38.3143 20.5241M38.3143 20.5241C37.9608 20.418 37.6805 20.1469 37.5628 19.7968M38.3143 20.5241L37.5628 19.7968M37.5628 19.7968C37.5628 19.7968 37.5628 19.7968 37.5628 19.7968L37.5628 19.7968ZM14.4858 14.1593V13.5189L13.8645 13.6743L8.36249 15.0499L7.0512 15.3777L8.26017 15.9822L10.216 16.96C10.216 16.96 10.216 16.96 10.216 16.96C10.6019 17.1531 10.8454 17.547 10.8454 17.9782V21.2445V22.0535L11.569 21.6917L15.1152 19.9187L15.1153 19.9186C15.2752 19.8386 15.4494 19.7986 15.6241 19.7986C15.7986 19.7986 15.9729 19.8386 16.1329 19.9186L16.133 19.9187L19.6793 21.6919L20.4029 22.0537V21.2447V17.9782C20.4029 17.5469 20.6465 17.1529 21.0322 16.9601L21.0323 16.96L22.988 15.9822L24.1969 15.3777L22.8857 15.0499L17.3836 13.6743L16.7624 13.5189V14.1593V15.0196C16.7624 15.6482 16.2527 16.1578 15.6241 16.1578C14.9954 16.1578 14.4858 15.6482 14.4858 15.0196V14.1593ZM6.86731 17.8311L6.61833 17.7066L6.38136 17.8527C4.23582 19.1751 2.77657 21.1473 2.77657 23.8207C2.77657 26.077 3.80271 28.442 5.49807 30.4089C7.19713 32.3801 9.59469 33.9839 12.3955 34.7034L12.6195 34.761L12.8085 34.6275C14.4839 33.4436 16.8212 32.3176 19.8613 31.2441C22.9099 30.1679 25.5636 28.7073 27.8075 26.8798L27.9169 26.7908L27.9636 26.6577C28.2927 25.7198 28.4717 24.7613 28.4717 23.8206C28.4717 21.1473 27.0125 19.1749 24.8669 17.8525L24.63 17.7064L24.381 17.8309L22.9559 18.5435L22.6795 18.6817V18.9907V23.8953C22.6795 24.2897 22.4752 24.6561 22.1396 24.8637C21.9569 24.9766 21.7494 25.0336 21.5412 25.0336C21.367 25.0336 21.1928 24.9938 21.0324 24.9135L21.0323 24.9135L15.8477 22.3213L15.6241 22.2095L15.4005 22.3213L10.216 24.9135L10.2159 24.9135C9.8635 25.0899 9.44442 25.0711 9.1087 24.8637C8.7731 24.6564 8.56883 24.2901 8.56883 23.8955V18.9909V18.6818L8.29244 18.5436L6.86731 17.8311ZM45.3054 15.9543L46.0508 10.6345C46.1203 10.1391 45.8653 9.65565 45.4171 9.43325L42.5158 7.99253L42.5157 7.99245C42.0684 7.77057 41.5291 7.85839 41.1758 8.2137L36.6392 12.7748L36.1499 13.2667L36.7713 13.5752L37.6708 14.0218C37.6708 14.0218 37.6708 14.0218 37.6708 14.0218C37.941 14.156 38.1471 14.3923 38.2434 14.6785L38.9831 16.8781L39.2082 17.5474L39.7648 17.1128L42.1072 15.2835L41.7995 14.8894L42.1072 15.2834C42.5642 14.9266 43.2163 14.97 43.6217 15.3848L43.6218 15.3848L44.4528 16.2345L45.1642 16.9619L45.3054 15.9543Z" fill="#222222" stroke="#EBEBEB"/>
</svg>
