<svg width="49" height="47" viewBox="0 0 49 47" fill="none" xmlns="http://www.w3.org/2000/svg">
<mask id="path-1-inside-1_1_2183" fill="white">
<path d="M46.6686 6.95534L48.8287 2.60606C49.2313 1.79566 48.9005 0.812359 48.0903 0.409965C47.2796 0.00724134 46.2967 0.338363 45.8942 1.14843L43.7341 5.49772C42.2164 4.75265 40.3999 5.05573 39.2074 6.25515L33.0679 12.428C32.6965 12.8012 32.5273 13.3305 32.613 13.85C32.6988 14.3697 33.029 14.8163 33.5007 15.0506L34.5981 15.5957C34.3064 16.7515 33.6759 18.695 32.386 20.8515C32.0128 21.4755 31.6085 22.0742 31.1785 22.652C30.8952 20.2782 29.7448 18.2308 27.9 16.6306L28.191 16.4851C28.8042 16.1786 29.1616 15.5224 29.0869 14.841C29.012 14.1595 28.5208 13.5966 27.8558 13.4304L17.2624 10.7821V6.14412C17.2624 5.23935 16.5288 4.50584 15.6241 4.50584C14.7193 4.50584 13.9858 5.23935 13.9858 6.14412V10.7821L3.39255 13.4303C2.7275 13.5966 2.23635 14.1593 2.16144 14.8409C2.08671 15.5223 2.44423 16.1784 3.0573 16.4849L3.34817 16.6304C1.20702 18.4878 0 20.9472 0 23.8207C0 27.2316 1.68332 30.7553 4.61804 33.4884C6.18604 34.9487 7.98304 36.0671 9.90856 36.8122C9.42763 37.5724 9.15657 38.3605 9.0947 39.1795C8.83171 42.6565 12.5054 44.8992 13.6377 45.5038C14.733 46.0885 16.9043 46.7616 19.6655 46.7616C21.688 46.7616 24.0272 46.4003 26.4909 45.3791C30.1579 43.8589 33.5173 41.1397 36.4756 37.2971C39.7375 33.0606 42.5226 27.4243 44.7667 20.527L44.7989 20.5599C45.2356 21.0066 45.8881 21.166 46.4817 20.9708C47.0751 20.7758 47.5059 20.2602 47.5927 19.6417L48.8007 11.0197C49.0353 9.34446 48.1785 7.7141 46.6686 6.95534ZM13.9858 14.1593V15.0196C13.9858 15.9243 14.7193 16.6578 15.6241 16.6578C16.5288 16.6578 17.2624 15.9243 17.2624 15.0196V14.1593L22.7644 15.535L20.8087 16.5128C20.2535 16.7903 19.9029 17.3575 19.9029 17.9782V21.2447L16.3566 19.4715C16.1261 19.3561 15.875 19.2986 15.6241 19.2986C15.373 19.2986 15.122 19.3561 14.8915 19.4715L11.3454 21.2445V17.9782C11.3454 17.3575 10.9948 16.7905 10.4396 16.5128L8.48376 15.535L13.9858 14.1593ZM3.27657 23.8207C3.27657 21.3628 4.60617 19.5342 6.64371 18.2783L8.06883 18.9909V23.8955C8.06883 24.4634 8.36283 24.9906 8.8459 25.2891C9.32897 25.5875 9.93215 25.6146 10.4396 25.3607L15.6241 22.7685L20.8087 25.3607C21.0398 25.4764 21.2907 25.5336 21.5412 25.5336C21.8406 25.5336 22.1394 25.4516 22.4026 25.2889C22.8855 24.9903 23.1795 24.463 23.1795 23.8953V18.9907L24.6046 18.2781C26.6421 19.534 27.9717 21.3628 27.9717 23.8206C27.9717 24.6981 27.8046 25.6006 27.4918 26.4922C25.297 28.2796 22.6951 29.7134 19.6949 30.7726C16.6321 31.8541 14.2475 32.9984 12.5199 34.2191C7.12942 32.8344 3.27657 28.0389 3.27657 23.8207ZM25.236 42.352C20.367 44.3707 16.3269 43.2249 15.1809 42.6133C13.717 41.8316 12.2776 40.5433 12.362 39.4267C12.4092 38.8024 13.1563 36.5565 20.7856 33.8628C28.8688 31.0089 33.1337 26.0437 35.2882 22.3811C35.9477 21.26 36.4547 20.191 36.8442 19.2284L37.0889 19.9562C37.2583 20.46 37.6617 20.8502 38.1705 21.003C38.3253 21.0495 38.484 21.0723 38.6415 21.0723C39.0027 21.0723 39.3584 20.953 39.6501 20.7253L41.801 19.0456C36.8209 34.6611 30.0753 40.3458 25.236 42.352ZM45.5556 10.565L44.8103 15.8849L43.9792 15.0352C43.3957 14.4383 42.4571 14.3758 41.7995 14.8894L39.457 16.7187L38.7173 14.519C38.5787 14.1072 38.2822 13.7672 37.8932 13.574L36.9937 13.1274L41.5304 8.56624C41.7315 8.36397 42.0384 8.31381 42.2934 8.44036L45.1948 9.88115C45.4502 10.0079 45.5952 10.2829 45.5556 10.565Z"/>
</mask>
<path d="M46.6686 6.95534L48.8287 2.60606C49.2313 1.79566 48.9005 0.812359 48.0903 0.409965C47.2796 0.00724134 46.2967 0.338363 45.8942 1.14843L43.7341 5.49772C42.2164 4.75265 40.3999 5.05573 39.2074 6.25515L33.0679 12.428C32.6965 12.8012 32.5273 13.3305 32.613 13.85C32.6988 14.3697 33.029 14.8163 33.5007 15.0506L34.5981 15.5957C34.3064 16.7515 33.6759 18.695 32.386 20.8515C32.0128 21.4755 31.6085 22.0742 31.1785 22.652C30.8952 20.2782 29.7448 18.2308 27.9 16.6306L28.191 16.4851C28.8042 16.1786 29.1616 15.5224 29.0869 14.841C29.012 14.1595 28.5208 13.5966 27.8558 13.4304L17.2624 10.7821V6.14412C17.2624 5.23935 16.5288 4.50584 15.6241 4.50584C14.7193 4.50584 13.9858 5.23935 13.9858 6.14412V10.7821L3.39255 13.4303C2.7275 13.5966 2.23635 14.1593 2.16144 14.8409C2.08671 15.5223 2.44423 16.1784 3.0573 16.4849L3.34817 16.6304C1.20702 18.4878 0 20.9472 0 23.8207C0 27.2316 1.68332 30.7553 4.61804 33.4884C6.18604 34.9487 7.98304 36.0671 9.90856 36.8122C9.42763 37.5724 9.15657 38.3605 9.0947 39.1795C8.83171 42.6565 12.5054 44.8992 13.6377 45.5038C14.733 46.0885 16.9043 46.7616 19.6655 46.7616C21.688 46.7616 24.0272 46.4003 26.4909 45.3791C30.1579 43.8589 33.5173 41.1397 36.4756 37.2971C39.7375 33.0606 42.5226 27.4243 44.7667 20.527L44.7989 20.5599C45.2356 21.0066 45.8881 21.166 46.4817 20.9708C47.0751 20.7758 47.5059 20.2602 47.5927 19.6417L48.8007 11.0197C49.0353 9.34446 48.1785 7.7141 46.6686 6.95534ZM13.9858 14.1593V15.0196C13.9858 15.9243 14.7193 16.6578 15.6241 16.6578C16.5288 16.6578 17.2624 15.9243 17.2624 15.0196V14.1593L22.7644 15.535L20.8087 16.5128C20.2535 16.7903 19.9029 17.3575 19.9029 17.9782V21.2447L16.3566 19.4715C16.1261 19.3561 15.875 19.2986 15.6241 19.2986C15.373 19.2986 15.122 19.3561 14.8915 19.4715L11.3454 21.2445V17.9782C11.3454 17.3575 10.9948 16.7905 10.4396 16.5128L8.48376 15.535L13.9858 14.1593ZM3.27657 23.8207C3.27657 21.3628 4.60617 19.5342 6.64371 18.2783L8.06883 18.9909V23.8955C8.06883 24.4634 8.36283 24.9906 8.8459 25.2891C9.32897 25.5875 9.93215 25.6146 10.4396 25.3607L15.6241 22.7685L20.8087 25.3607C21.0398 25.4764 21.2907 25.5336 21.5412 25.5336C21.8406 25.5336 22.1394 25.4516 22.4026 25.2889C22.8855 24.9903 23.1795 24.463 23.1795 23.8953V18.9907L24.6046 18.2781C26.6421 19.534 27.9717 21.3628 27.9717 23.8206C27.9717 24.6981 27.8046 25.6006 27.4918 26.4922C25.297 28.2796 22.6951 29.7134 19.6949 30.7726C16.6321 31.8541 14.2475 32.9984 12.5199 34.2191C7.12942 32.8344 3.27657 28.0389 3.27657 23.8207ZM25.236 42.352C20.367 44.3707 16.3269 43.2249 15.1809 42.6133C13.717 41.8316 12.2776 40.5433 12.362 39.4267C12.4092 38.8024 13.1563 36.5565 20.7856 33.8628C28.8688 31.0089 33.1337 26.0437 35.2882 22.3811C35.9477 21.26 36.4547 20.191 36.8442 19.2284L37.0889 19.9562C37.2583 20.46 37.6617 20.8502 38.1705 21.003C38.3253 21.0495 38.484 21.0723 38.6415 21.0723C39.0027 21.0723 39.3584 20.953 39.6501 20.7253L41.801 19.0456C36.8209 34.6611 30.0753 40.3458 25.236 42.352ZM45.5556 10.565L44.8103 15.8849L43.9792 15.0352C43.3957 14.4383 42.4571 14.3758 41.7995 14.8894L39.457 16.7187L38.7173 14.519C38.5787 14.1072 38.2822 13.7672 37.8932 13.574L36.9937 13.1274L41.5304 8.56624C41.7315 8.36397 42.0384 8.31381 42.2934 8.44036L45.1948 9.88115C45.4502 10.0079 45.5952 10.2829 45.5556 10.565Z" fill="#222222" stroke="#EBEBEB" stroke-width="2" mask="url(#path-1-inside-1_1_2183)"/>
</svg>
